<?xml version="1.0" encoding="utf-8"?>
<!-- Generator: Adobe Illustrator 26.0.3, SVG Export Plug-In . SVG Version: 6.00 Build 0)  -->
<svg version="1.1" id="Layer_1" xmlns="http://www.w3.org/2000/svg" xmlns:xlink="http://www.w3.org/1999/xlink" x="0px" y="0px"
	 viewBox="0 0 73.4 95" style="enable-background:new 0 0 73.4 95;" xml:space="preserve">
<style type="text/css">
	.st0{fill:#8E8E9A;}
	.st1{fill:#5F38FA;}
</style>
<g>
	<path class="st0" d="M14.6,71.1h-3V23.5h3v10.4c0,9,7.3,16.3,16.3,16.3h17.6v3H30.9c-6.9,0-12.9-3.6-16.3-9V71.1z"/>
	<path class="st1" d="M19.5,12.7h-3c0-2.7-2.2-4.9-4.9-4.9v-3C16,4.8,19.5,8.3,19.5,12.7z"/>
	<path class="st1" d="M20.6,82.3h-3c0-2.7-2.2-4.9-4.9-4.9v-3C17,74.4,20.6,77.9,20.6,82.3z"/>
	<path class="st0" d="M12.7,25.4C5.7,25.4,0,19.7,0,12.7S5.7,0,12.7,0s12.7,5.7,12.7,12.7S19.7,25.4,12.7,25.4z M12.7,3
		C7.3,3,3,7.3,3,12.7c0,5.3,4.3,9.7,9.7,9.7s9.7-4.3,9.7-9.7S18,3,12.7,3z"/>
	<g>
		<path class="st1" d="M68.1,51.8h-3c0-2.7-2.2-4.9-4.9-4.9v-3C64.5,43.9,68.1,47.4,68.1,51.8z"/>
		<path class="st0" d="M60.7,64c-7,0-12.7-5.7-12.7-12.7s5.7-12.7,12.7-12.7s12.7,5.7,12.7,12.7S67.7,64,60.7,64z M60.7,41.6
			c-5.3,0-9.7,4.3-9.7,9.7c0,5.3,4.3,9.7,9.7,9.7c5.3,0,9.7-4.3,9.7-9.7S66,41.6,60.7,41.6z"/>
	</g>
	<path class="st0" d="M13.1,95c-7,0-12.7-5.7-12.7-12.7s5.7-12.7,12.7-12.7s12.7,5.7,12.7,12.7S20.1,95,13.1,95z M13.1,72.6
		c-5.3,0-9.7,4.3-9.7,9.7S7.8,92,13.1,92s9.7-4.3,9.7-9.7S18.4,72.6,13.1,72.6z"/>
</g>
</svg>
