<svg width="18" height="18" viewBox="0 0 18 18" fill="none" xmlns="http://www.w3.org/2000/svg">
<circle cx="9" cy="9" r="8.5" stroke="white"/>
<rect x="2" y="8" width="11" height="1" rx="0.5" fill="white"/>
<path d="M9.67545 5.19412C9.88584 4.98373 10.2229 4.97141 10.4481 5.16587L13.8119 8.0706C14.2335 8.43474 14.1086 9.11795 13.5853 9.3093V9.3093C13.3184 9.40692 13.0191 9.3408 12.8181 9.13981L9.67545 5.99719C9.45369 5.77543 9.45369 5.41588 9.67545 5.19412V5.19412Z" fill="white"/>
<path d="M9.66232 12.5969C9.44782 12.3824 9.44781 12.0346 9.66232 11.8201L13.0385 8.44392C13.1099 8.37248 13.1993 8.32163 13.2972 8.29671V8.29671C13.8522 8.15546 14.2381 8.83779 13.831 9.24059L10.4371 12.5989C10.2222 12.8115 9.87602 12.8106 9.66232 12.5969V12.5969Z" fill="white"/>
</svg>
