<svg width="24" height="24" viewBox="0 0 24 24" fill="none" xmlns="http://www.w3.org/2000/svg">
<circle cx="12" cy="12" r="12" transform="rotate(179.805 12 12)" fill="white"/>
<path d="M7.37753 5.5537C7.62997 5.22466 8.09496 5.162 8.42511 5.41314L16.9441 11.6275L16.9461 11.629L16.9461 11.629C17.0052 11.673 17.0572 11.7247 17.1016 11.7834L17.1032 11.7856L17.1032 11.7856C17.3518 12.1222 17.2771 12.587 16.9502 12.834L16.9483 12.8354L16.9483 12.8354L8.46962 19.1143L8.46937 19.1145C8.13585 19.3609 7.66866 19.2968 7.41941 18.9594L7.4188 18.9585L7.4188 18.9585C7.17904 18.6311 7.24109 18.1583 7.58075 17.9135L15.2362 12.2399L7.54089 6.62245L7.5304 6.6148L7.52651 6.61208C7.52471 6.61078 7.52261 6.60924 7.52028 6.60747C7.51788 6.60565 7.51524 6.60358 7.51243 6.6013C7.51144 6.60049 7.51039 6.59962 7.50928 6.5987C7.18527 6.34436 7.12583 5.88175 7.37753 5.5537ZM7.37753 5.5537C7.37753 5.5537 7.37753 5.55369 7.37754 5.55369L7.57588 5.70587L7.37753 5.5537Z" fill="url(#paint0_linear_0_1)" stroke="url(#paint1_linear_0_1)" stroke-width="0.5"/>
<defs>
<linearGradient id="paint0_linear_0_1" x1="13" y1="5" x2="6.5" y2="24" gradientUnits="userSpaceOnUse">
<stop stop-color="#6A82FB"/>
<stop offset="0.742907" stop-color="#91EAE4"/>
</linearGradient>
<linearGradient id="paint1_linear_0_1" x1="17.5" y1="7" x2="5.5" y2="26" gradientUnits="userSpaceOnUse">
<stop offset="0.00931414" stop-color="#6A82FB"/>
<stop offset="0.698605" stop-color="#FC5C7D"/>
</linearGradient>
</defs>
</svg>
