<svg width="24" height="24" viewBox="0 0 24 24" fill="none" xmlns="http://www.w3.org/2000/svg">
<circle cx="12" cy="12" r="12" transform="rotate(179.805 12 12)" fill="white"/>
<path d="M15.2362 12.2399L7.54089 6.62245L7.53041 6.6148L7.52651 6.61208C7.52425 6.61046 7.52154 6.60845 7.5185 6.6061C7.51659 6.60463 7.51456 6.60303 7.51243 6.6013C7.51144 6.60049 7.51038 6.59962 7.50927 6.59869C7.18527 6.34435 7.12583 5.88175 7.37753 5.5537C7.37753 5.5537 7.37753 5.55369 7.37754 5.55369L7.57588 5.70587C7.7451 5.48531 8.05499 5.44422 8.27555 5.61349L15.2362 12.2399ZM15.2362 12.2399L7.58079 17.9135C7.24109 18.1583 7.17903 18.6311 7.4188 18.9585L7.41941 18.9594C7.66866 19.2968 8.13585 19.3609 8.46937 19.1145L8.46962 19.1143L16.9483 12.8354L16.9483 12.8354L16.9502 12.834C17.2771 12.587 17.3518 12.1222 17.1032 11.7856L17.1032 11.7856L17.1016 11.7834C17.0572 11.7247 17.0052 11.673 16.9461 11.629L16.9461 11.629L16.9441 11.6275L8.42511 5.41314L15.2362 12.2399Z" fill="url(#paint0_linear_0_1)" stroke="url(#paint1_linear_0_1)" stroke-width="0.5"/>
<defs>
<linearGradient id="paint0_linear_0_1" x1="13" y1="5" x2="6.5" y2="24" gradientUnits="userSpaceOnUse">
<stop stop-color="#6A82FB"/>
<stop offset="0.742907" stop-color="#91EAE4"/>
</linearGradient>
<linearGradient id="paint1_linear_0_1" x1="17.5" y1="7" x2="5.5" y2="26" gradientUnits="userSpaceOnUse">
<stop stop-color="#7F7FD5"/>
<stop offset="1" stop-color="#91EAE4"/>
</linearGradient>
</defs>
</svg>
