<svg width="18" height="13" viewBox="0 0 18 13" fill="none" xmlns="http://www.w3.org/2000/svg">
<rect y="5" width="16" height="2" rx="1" fill="white"/>
<path d="M11.2829 1.02035C11.5921 0.711083 12.0877 0.692965 12.4187 0.978818L17.3633 5.24876C17.9832 5.78404 17.7996 6.78836 17.0304 7.06964V7.06964C16.638 7.21314 16.1979 7.11594 15.9025 6.82049L11.2829 2.20085C10.9569 1.87487 10.9569 1.34634 11.2829 1.02035V1.02035Z" fill="white"/>
<path d="M11.2635 11.9024C10.9482 11.587 10.9482 11.0758 11.2635 10.7605L16.2265 5.79752C16.3315 5.69251 16.4629 5.61776 16.6068 5.58113V5.58113C17.4226 5.37349 17.9898 6.37651 17.3915 6.96862L12.4024 11.9054C12.0866 12.2178 11.5777 12.2165 11.2635 11.9024V11.9024Z" fill="white"/>
</svg>
