<svg width="40" height="40" viewBox="0 0 40 40" fill="none" xmlns="http://www.w3.org/2000/svg">
<path fill-rule="evenodd" clip-rule="evenodd" d="M4.10156 11.0648H35.6022V29.3791H27.7865C27.5651 29.0148 27.2917 28.7425 26.9922 28.5248C26.0547 27.8505 23.6133 27.6327 22.6107 26.7197C22.6042 26.7072 22.5977 26.6988 22.5911 26.6904C22.3665 26.4014 22.194 26.0748 22.0215 25.7481C21.9824 25.6769 21.9466 25.6015 21.9076 25.5345C22.3307 24.9942 22.6563 24.3158 22.9753 23.6373L23.8477 21.7904C23.8509 21.7778 23.8542 21.7694 23.8607 21.7569C24.0658 21.1622 24.1309 20.7224 24.069 20.4125C24.0137 20.1319 23.8802 19.9602 23.6654 19.8765L23.7142 17.3259C23.6589 16.2873 23.3887 15.5041 22.9655 14.9136C22.1191 13.7368 20.3255 12.606 19.1146 12.7652C18.8639 12.7987 19.1406 13.5023 18.8997 13.5902C18.5189 13.7284 18.151 13.9378 17.819 14.21C17.2135 14.7084 16.7253 15.4288 16.5267 16.3292C16.4811 16.5428 16.4486 16.7522 16.4323 16.9658C16.3997 17.862 16.4193 18.93 16.4681 19.7759C16.3997 19.8094 16.3379 19.8513 16.2826 19.8974C16.1654 20.0021 16.0775 20.1361 16.0189 20.2911C15.9635 20.4418 15.9408 20.6135 15.944 20.802C15.9538 21.2041 16.097 21.6941 16.377 22.2301L17.1419 23.7923C17.373 24.2655 17.6172 24.7513 17.8971 25.1785C17.8288 25.434 17.7246 25.8025 17.6074 26.146C17.5293 26.3721 17.4512 26.5815 17.3763 26.7239C16.3672 27.6327 13.9388 27.8505 13.0046 28.5206C12.7051 28.7384 12.4316 29.0106 12.2103 29.3749H4.10156V11.0648ZM2.70833 0H37.2917C38.7826 0 40 1.56633 40 3.48445V36.5155C40 38.4295 38.7826 40 37.2917 40H2.70833C1.21745 40 0 38.4337 0 36.5155V3.48445C0 1.56633 1.21745 0 2.70833 0ZM38.4017 8.41797H1.72201V36.8548C1.72201 37.3908 2.05404 37.818 2.4707 37.818H37.64C38.0566 37.818 38.3887 37.3867 38.3887 36.8548V8.41797H38.4017ZM34.7135 3.02377C35.4525 3.02377 36.0514 3.79437 36.0514 4.74505C36.0514 5.69574 35.4525 6.46634 34.7135 6.46634C33.9746 6.46634 33.3757 5.69574 33.3757 4.74505C33.3757 3.79437 33.9779 3.02377 34.7135 3.02377ZM25.651 3.02377C26.39 3.02377 26.9889 3.79437 26.9889 4.74505C26.9889 5.69574 26.39 6.46634 25.651 6.46634C24.9121 6.46634 24.3132 5.69574 24.3132 4.74505C24.3132 3.79437 24.9121 3.02377 25.651 3.02377ZM30.1823 3.02377C30.9212 3.02377 31.5202 3.79437 31.5202 4.74505C31.5202 5.69574 30.9212 6.46634 30.1823 6.46634C29.4434 6.46634 28.8444 5.69574 28.8444 4.74505C28.8444 3.79437 29.4434 3.02377 30.1823 3.02377ZM21.7676 35.4895C21.1882 35.4895 20.7194 34.832 20.7194 34.0237C20.7194 33.2112 21.1882 32.5578 21.7676 32.5578H34.6745C35.2539 32.5578 35.7227 33.2154 35.7227 34.0237C35.7227 34.832 35.2539 35.4895 34.6745 35.4895H21.7676ZM4.86979 35.4895C4.29688 35.4895 3.83138 34.832 3.83138 34.0237C3.83138 33.2112 4.29688 32.5578 4.86979 32.5578H16.8359C17.4089 32.5578 17.8743 33.2154 17.8743 34.0237C17.8743 34.832 17.4089 35.4895 16.8359 35.4895H4.86979Z" fill="black"/>
</svg>
