<svg width="22" height="28" viewBox="0 0 22 28" fill="none" xmlns="http://www.w3.org/2000/svg">
<path d="M21.125 7.75V7.74917C21.1231 6.05921 20.451 4.439 19.256 3.24402C18.061 2.04904 16.4408 1.37688 14.7508 1.375H14.75L7.25 1.375L7.24917 1.375C5.55921 1.37688 3.939 2.04904 2.74402 3.24402C1.54904 4.439 0.876875 6.05921 0.875 7.74917V7.75L0.874999 24L0.875001 24.0011C0.87569 24.4798 1.00729 24.9493 1.25556 25.3586C1.50384 25.7679 1.85933 26.1016 2.28357 26.3234C2.70781 26.5453 3.18464 26.6469 3.66247 26.6173C4.14029 26.5876 4.60092 26.4279 4.9945 26.1553L10.9975 21.9981L17.0055 26.1578C17.0055 26.1578 17.0055 26.1579 17.0056 26.1579C17.3994 26.4306 17.8603 26.5903 18.3384 26.6198C18.8165 26.6493 19.2936 26.5474 19.718 26.3251C20.1423 26.1029 20.4978 25.7687 20.7458 25.3589C20.9938 24.949 21.1249 24.4791 21.125 24.0001V24V7.75Z" fill="white" stroke="#1E90FF" stroke-width="1.5"/>
</svg>
