<svg width="40" height="40" viewBox="0 0 40 40" fill="none" xmlns="http://www.w3.org/2000/svg">
<g clip-path="url(#clip0_110_18)">
<path d="M30.7037 25.6803V21.5853H40.0001V40H6.5233V33.9746H14.5684V29.8275H22.3805V25.6803H30.7037ZM7.83096 16.862L7.11701 16.3607C7.10471 16.3578 7.09173 16.3578 7.07943 16.3607C7.07222 16.361 7.06515 16.3626 7.05869 16.3654C7.05222 16.3682 7.04649 16.3722 7.04186 16.377L5.82063 17.679C5.81727 17.6897 5.81727 17.7009 5.82063 17.7116C5.82169 17.718 5.82423 17.7243 5.8281 17.7298C5.83197 17.7354 5.8371 17.7403 5.84317 17.7441L6.54209 18.2292C6.5556 18.2325 6.56992 18.2325 6.58343 18.2292C6.59017 18.2291 6.59677 18.2275 6.60267 18.2247C6.60856 18.2218 6.61357 18.2178 6.61725 18.2129L7.83848 16.9108C7.84096 16.9057 7.84223 16.9001 7.84223 16.8945C7.84223 16.8889 7.84096 16.8834 7.83848 16.8783C7.83809 16.872 7.83623 16.8659 7.833 16.8603C7.82976 16.8547 7.82523 16.8497 7.81969 16.8457L7.83096 16.862ZM5.78305 10.8333L8.26685 12.5749L9.4242 11.3932C9.50718 11.3041 9.6273 11.2468 9.75863 11.2337C9.89283 11.2202 10.0278 11.2529 10.1344 11.3249C10.6567 10.8073 11.1753 10.2767 11.6863 9.75586C12.0621 9.33268 12.4378 8.94857 12.8136 8.61003C13.1718 8.26811 13.5769 7.96531 14.0198 7.70834C14.4958 7.43872 15.0184 7.23654 15.5679 7.10938C16.2423 6.96035 16.935 6.88275 17.6309 6.87826H17.6609C18.2321 6.85221 18.9009 6.87826 19.4608 6.87826H20.1522C22.9629 6.87826 24.3608 8.06966 25.443 8.9974C25.6647 9.1862 25.8751 9.36524 26.0705 9.50846C26.2335 9.64172 26.42 9.7516 26.6229 9.83399C26.7131 9.86003 26.9536 9.75586 27.2203 9.63867C27.4329 9.54174 27.6526 9.45692 27.8779 9.38477C28.8173 9.01042 29.7793 8.55794 30.7149 8.22591C30.9134 8.15521 31.1288 8.12728 31.3425 8.14453C31.5679 8.16247 31.7873 8.21772 31.9888 8.30729C32.1367 8.37197 32.2744 8.45294 32.3984 8.54818C32.5248 8.64446 32.6371 8.75378 32.7328 8.8737V8.88998C32.8328 9.01378 32.9136 9.14839 32.9733 9.29037C33.1319 9.69588 33.1105 10.138 32.9132 10.5306C32.8456 10.6953 32.7493 10.8501 32.6276 10.9896C32.3927 11.2624 32.0717 11.4705 31.7032 11.5885C31.0005 11.8848 30.2941 12.1875 29.5839 12.4512C28.9896 12.6915 28.3706 12.8833 27.7351 13.0241C27.0072 13.1506 26.2574 13.1506 25.5294 13.0241H25.4618C24.6107 12.7948 23.8317 12.3995 23.1846 11.8685L22.8089 15.0033C23.0982 15.1335 23.3838 15.2474 23.6619 15.3516C24.0038 15.4785 24.3307 15.5892 24.6501 15.6966C26.6868 16.3835 28.3627 16.9531 28.9188 19.6484C28.9864 19.974 29.0503 20.625 29.1029 21.3737C29.1893 22.4967 29.2532 23.8086 29.2683 24.2871C29.2718 24.3065 29.2718 24.3263 29.2683 24.3457C29.2535 24.393 29.2213 24.4349 29.1765 24.4649C29.1317 24.4948 29.0768 24.5113 29.0203 24.5117H28.9789C28.8993 24.5222 28.819 24.5287 28.7384 24.5313H28.0846C27.3331 24.5313 26.3899 24.5313 25.9465 24.5313H25.8375C25.6797 24.5313 25.6046 24.5313 25.5069 24.4401C25.4734 24.4051 25.4487 24.3645 25.4345 24.3207C25.4203 24.277 25.4168 24.2312 25.4242 24.1862V24.056C25.3904 23.5124 25.3227 22.6009 25.2551 21.7773C25.2025 21.1914 25.1536 20.6641 25.1123 20.3841C25.0967 20.2875 25.0741 20.1918 25.0447 20.0977C25.0141 20.0088 24.9738 19.9227 24.9244 19.8405L24.8906 19.7884C24.7779 19.6094 24.6764 19.4434 24.5975 19.4173C24.451 19.3652 24.2556 19.3099 24.0301 19.2513C23.8047 19.1927 23.474 19.1146 23.1771 19.0462C22.8803 18.9779 22.5308 18.9063 22.1701 18.8346L21.3133 18.6686C21.0653 19.5638 20.8662 20.5078 20.667 21.5007C20.171 23.8542 19.645 26.3477 18.6567 28.3366C18.6308 28.3896 18.5827 28.4322 18.5221 28.4557C18.4614 28.4793 18.3927 28.4821 18.3298 28.4635C18.0624 28.4983 17.7922 28.5135 17.5219 28.5091C16.7215 28.5091 15.613 28.5091 15.1358 28.4831H15.0306C14.869 28.4831 14.7863 28.4831 14.6962 28.3691C14.666 28.3286 14.6467 28.2827 14.6395 28.2348C14.6324 28.187 14.6376 28.1383 14.6548 28.0925L14.6811 27.985C14.73 27.7669 14.8089 27.4284 14.9103 27.0085L15.3312 25.3125C15.6093 24.196 15.9888 22.7083 16.357 21.2793C16.8342 19.4108 17.2589 17.78 17.4054 17.2201C17.2701 17.0866 17.1349 16.9499 17.0296 16.8066C16.8721 16.6245 16.7313 16.4318 16.6088 16.2305C16.472 16.0007 16.3697 15.7568 16.3044 15.5046C16.2376 15.2395 16.2236 14.9664 16.2631 14.6973L16.9094 10.3385C16.6811 10.3403 16.4562 10.387 16.2518 10.4753C16.0443 10.5772 15.8567 10.7069 15.6957 10.8594C15.5116 11.0286 15.3199 11.2337 15.132 11.4518C14.978 11.6211 14.8164 11.8034 14.6172 12.0052C14.1325 12.4935 13.644 13.0013 13.1518 13.4928C13.1839 13.5646 13.1935 13.6425 13.1796 13.7185C13.1658 13.7946 13.1289 13.8661 13.0729 13.9258L11.8742 15.1139L14.3505 16.8555C14.491 16.9547 14.5825 17.0968 14.606 17.2526C14.616 17.3326 14.6076 17.4135 14.5811 17.4907C14.5547 17.5678 14.5108 17.6396 14.4519 17.7018L13.3772 18.8802C12.4318 18.8166 11.4948 18.6794 10.5778 18.4701C9.67659 18.2634 8.80167 17.9788 7.96624 17.6204L8.39461 17.1615C8.44193 17.1113 8.47734 17.0535 8.4988 16.9915C8.52027 16.9294 8.52736 16.8643 8.51968 16.7999C8.512 16.7355 8.48969 16.673 8.45404 16.616C8.41839 16.5591 8.37009 16.5088 8.31194 16.4681L7.48526 15.8854C7.42736 15.8444 7.36068 15.8137 7.28905 15.7952C7.21743 15.7766 7.14226 15.7704 7.06788 15.7771C6.9935 15.7837 6.92138 15.803 6.85565 15.8339C6.78992 15.8648 6.73188 15.9067 6.68488 15.957L6.26403 16.4063C5.70483 15.7846 5.21655 15.1174 4.80607 14.4141C4.37199 13.6542 4.02099 12.8608 3.75769 12.0443L4.80607 10.9277C4.92382 10.8019 5.09437 10.7216 5.28033 10.7046C5.46628 10.6875 5.65247 10.7349 5.79808 10.8366L5.78305 10.8333ZM9.4768 12.4414L8.9094 13.0208L11.2504 14.6484L11.6863 14.2122C11.0212 13.7174 10.1043 13.0078 9.51814 12.4772L9.4768 12.4382V12.4414ZM12.7384 19.5313L9.81875 22.6497C9.7612 22.7125 9.68958 22.7644 9.6082 22.8024C9.52682 22.8405 9.43738 22.8638 9.34529 22.8711C9.15939 22.8885 8.97306 22.8417 8.82673 22.7409L0.25933 16.7318C0.113092 16.6292 0.0198392 16.4805 5.31576e-05 16.3184C-0.0101391 16.2389 -0.00175076 16.1584 0.0247181 16.0818C0.0511869 16.0052 0.0951942 15.934 0.154116 15.8724L3.1001 12.7246C3.3552 13.395 3.66796 14.0479 4.03575 14.6777C4.50309 15.4878 5.07002 16.2518 5.72669 16.9564L5.26074 17.4544C5.21363 17.5048 5.17848 17.5627 5.15732 17.6249C5.13615 17.6871 5.12939 17.7522 5.13743 17.8167C5.14546 17.8811 5.16813 17.9436 5.20412 18.0004C5.24012 18.0572 5.28873 18.1073 5.34716 18.1478L6.17384 18.7305C6.23174 18.7715 6.29842 18.8021 6.37005 18.8207C6.44168 18.8393 6.51684 18.8455 6.59122 18.8388C6.6656 18.8322 6.73773 18.8128 6.80346 18.782C6.86918 18.7511 6.92722 18.7092 6.97422 18.6589L7.45895 18.1413L7.43641 18.1771C8.38194 18.5952 9.37735 18.9227 10.4049 19.1536C11.1708 19.3299 11.9508 19.4561 12.7384 19.5313ZM28.8023 24.3164C28.8023 24.3424 28.8023 24.3392 28.8023 24.3164ZM19.784 0.227866C20.2125 0.0734302 20.6727 -0.00408831 21.1367 1.18343e-06C21.8288 -0.00231361 22.506 0.17382 23.0822 0.505979C23.6583 0.838139 24.1073 1.3113 24.3721 1.86524C24.5509 2.23193 24.6429 2.62601 24.6426 3.02409C24.6453 3.62362 24.442 4.21028 24.0585 4.70939C23.6751 5.2085 23.1289 5.59748 22.4895 5.82682C22.0662 5.98177 21.6113 6.06147 21.1518 6.0612C20.693 6.06147 20.2386 5.98407 19.8141 5.83333C18.9637 5.52776 18.288 4.94241 17.9352 4.20573C17.7536 3.83625 17.6603 3.4387 17.6609 3.03711C17.657 2.43906 17.8581 1.85347 18.2388 1.35452C18.6194 0.855573 19.1624 0.465727 19.799 0.234376L19.784 0.227866Z" fill="black"/>
</g>
<defs>
<clipPath id="clip0_110_18">
<rect width="40" height="40" fill="white"/>
</clipPath>
</defs>
</svg>
