<svg width="40" height="40" viewBox="0 0 40 40" fill="none" xmlns="http://www.w3.org/2000/svg">
<circle cx="20" cy="20" r="20" fill="white"/>
<path d="M30.4883 29.8869C29.9869 30.4706 29.3654 30.9392 28.6662 31.2604C27.9669 31.5817 27.2065 31.748 26.437 31.7481H26.292C21.4821 31.6187 16.9048 29.6502 13.5024 26.2478C10.1 22.8454 8.13146 18.2681 8.00205 13.4581C7.97996 12.6598 8.1369 11.8666 8.46135 11.1368C8.7858 10.407 9.26953 9.7591 9.87705 9.24064C10.4437 8.7464 11.1138 8.38534 11.8382 8.18396C12.5626 7.98258 13.3229 7.94599 14.0633 8.07689C14.264 8.1128 14.4619 8.1625 14.6558 8.22564C14.9809 8.33487 15.2696 8.53162 15.4901 8.79427C15.7106 9.05692 15.8545 9.3753 15.9058 9.71439L16.7433 15.0319C16.795 15.3595 16.7598 15.695 16.6411 16.0048C16.5224 16.3145 16.3245 16.5877 16.067 16.7969C15.962 16.8819 15.8533 16.9619 15.7395 17.0381C15.6028 17.122 15.5006 17.2521 15.4513 17.4047C15.402 17.5574 15.4089 17.7226 15.4708 17.8706C16.7146 20.7431 19.0051 23.0344 21.877 24.2794C22.0269 24.3411 22.194 24.3471 22.3479 24.2962C22.5018 24.2452 22.6323 24.1408 22.7158 24.0019C22.7745 23.9169 22.8408 23.8331 22.8983 23.7519C23.1086 23.489 23.3853 23.2871 23.6997 23.1669C24.0142 23.0467 24.355 23.0126 24.687 23.0681L30.102 23.9694C30.4459 24.0225 30.7677 24.1721 31.0301 24.4006C31.2924 24.6291 31.4847 24.9273 31.5845 25.2606C31.6183 25.3856 31.6495 25.5194 31.677 25.6756C31.8045 26.4218 31.764 27.187 31.5583 27.9155C31.3527 28.644 30.9871 29.3175 30.4883 29.8869Z" fill="#1E90FF"/>
</svg>
