<svg width="40" height="40" viewBox="0 0 40 40" fill="none" xmlns="http://www.w3.org/2000/svg">
<path d="M20 40C31.0457 40 40 31.0457 40 20C40 8.9543 31.0457 0 20 0C8.9543 0 0 8.9543 0 20C0 31.0457 8.9543 40 20 40Z" fill="white"/>
<path d="M27.877 25.949L28.766 20.158H23.209V16.4C23.209 14.816 23.985 13.271 26.474 13.271H29V8.34101C29 8.34101 26.708 7.95001 24.516 7.95001C19.94 7.95001 16.949 10.724 16.949 15.745V20.159H11.862V25.95H16.949V39.95H23.209V25.95L27.877 25.949Z" fill="#333333"/>
</svg>
