<svg width="50" height="50" viewBox="0 0 50 50" fill="none" xmlns="http://www.w3.org/2000/svg">
<g clip-path="url(#clip0_104_2)">
<path d="M25 50C38.8071 50 50 38.8071 50 25C50 11.1929 38.8071 0 25 0C11.1929 0 0 11.1929 0 25C0 38.8071 11.1929 50 25 50Z" fill="#1E90FF"/>
<path d="M34.8462 32.4363L35.9575 25.1975H29.0112V20.5C29.0112 18.52 29.9812 16.5888 33.0925 16.5888H36.25V10.4262C36.25 10.4262 33.385 9.9375 30.645 9.9375C24.925 9.9375 21.1862 13.405 21.1862 19.6813V25.1988H14.8275V32.4375H21.1862V49.9375H29.0112V32.4375L34.8462 32.4363Z" fill="white"/>
</g>
<defs>
<clipPath id="clip0_104_2">
<rect width="50" height="50" fill="white"/>
</clipPath>
</defs>
</svg>
