<svg width="40" height="40" viewBox="0 0 40 40" fill="none" xmlns="http://www.w3.org/2000/svg">
<circle cx="20" cy="20" r="20" fill="white"/>
<path d="M26.3333 35.1224V30.937C26.388 30.2417 26.2941 29.5426 26.0577 28.8863C25.8213 28.2301 25.448 27.6316 24.9625 27.1308C29.5417 26.6204 34.3542 24.8849 34.3542 16.9224C34.3537 14.8863 33.5706 12.9283 32.1667 11.4537C32.8314 9.67234 32.7844 7.70335 32.0354 5.95576C32.0354 5.95576 30.3146 5.44534 26.3333 8.11409C22.9908 7.20821 19.4675 7.20821 16.125 8.11409C12.1437 5.44534 10.4229 5.95576 10.4229 5.95576C9.67385 7.70335 9.62685 9.67234 10.2916 11.4537C8.87724 12.9393 8.09324 14.915 8.10415 16.9662C8.10415 24.8704 12.9166 26.6058 17.4958 27.1745C17.016 27.6704 16.646 28.2616 16.4098 28.9098C16.1736 29.558 16.0766 30.2488 16.125 30.937V35.1224" fill="#1E90FF"/>
<mask id="path-3-inside-1_0_1" fill="white">
<path d="M16.125 32.2056C11.75 33.6249 8.10417 32.2056 5.91667 27.8306Z"/>
</mask>
<path d="M15.8164 31.2544C13.8003 31.9085 12.0486 31.88 10.5864 31.2684C9.12469 30.6571 7.82421 29.4096 6.8111 27.3834L5.02224 28.2778C6.19664 30.6266 7.81282 32.2763 9.81468 33.1135C11.8159 33.9505 14.0747 33.9221 16.4336 33.1568L15.8164 31.2544Z" fill="#1E90FF" mask="url(#path-3-inside-1_0_1)"/>
</svg>
