<svg width="50" height="50" viewBox="0 0 50 50" fill="none" xmlns="http://www.w3.org/2000/svg">
<circle cx="25" cy="25" r="25" fill="#1E90FF"/>
<path d="M32.6667 43.4647V38.3226C32.7339 37.4684 32.6185 36.6095 32.328 35.8032C32.0376 34.997 31.5789 34.2617 30.9825 33.6464C36.6083 33.0193 42.5208 30.8872 42.5208 21.1047C42.5203 18.6032 41.5582 16.1977 39.8333 14.386C40.65 12.1975 40.5923 9.77842 39.6721 7.63138C39.6721 7.63138 37.5579 7.0043 32.6667 10.283C28.5602 9.1701 24.2315 9.1701 20.125 10.283C15.2337 7.0043 13.1196 7.63138 13.1196 7.63138C12.1993 9.77842 12.1416 12.1975 12.9583 14.386C11.2206 16.2111 10.2574 18.6384 10.2708 21.1585C10.2708 30.8693 16.1833 33.0014 21.8091 33.7001C21.2197 34.3093 20.7651 35.0357 20.4749 35.8321C20.1847 36.6284 20.0655 37.4772 20.125 38.3226V43.4647" fill="white"/>
<mask id="path-3-inside-1_0_1" fill="white">
<path d="M20.125 39.8812C14.75 41.6249 10.2708 39.8812 7.58334 34.5062Z"/>
</mask>
<path d="M19.8164 38.93C17.3003 39.7463 15.0903 39.7178 13.2322 38.9407C11.3747 38.1638 9.74088 36.5852 8.47777 34.059L6.68892 34.9534C8.11331 37.8022 10.0628 39.783 12.4605 40.7858C14.8576 41.7883 17.5747 41.7599 20.4336 40.8324L19.8164 38.93Z" fill="white" mask="url(#path-3-inside-1_0_1)"/>
</svg>
