<svg xmlns="http://www.w3.org/2000/svg" xmlns:xlink="http://www.w3.org/1999/xlink" width="86" height="73" viewBox="0 0 86 73">
    <defs>
        <path id="prefix__a" d="M20.8 0L41.6 0 41.6 72.8 20.8 72.8 0 72.8 0 0 20.8 0z"/>
    </defs>
    <g fill="none" fill-rule="evenodd">
        <g transform="translate(44.2)">
            <mask id="prefix__b" fill="#fff">
                <use xlink:href="#prefix__a"/>
            </mask>
            <path fill="#8E8E9A" d="M2.244 72.8l-2.03-2.01c.268-.264 26.905-26.566 31.738-32.247 4.243-4.987 6.777-11.43 6.777-17.236 0-11.219-7.666-18.47-19.53-18.47-7.069 0-13.64 3.291-16.741 8.385L0 9.757C3.607 3.831 11.143 0 19.2 0c13.398 0 22.4 8.563 22.4 21.307 0 6.454-2.784 13.58-7.449 19.064C29.237 46.145 3.344 71.713 2.244 72.8" mask="url(#prefix__b)"/>
        </g>
        <path fill="#8E8E9A" d="M39.356 72.8c-1.1-1.087-26.993-26.655-31.907-32.43C2.784 34.888 0 27.762 0 21.308 0 8.563 9.002 0 22.4 0c8.057 0 15.593 3.83 19.2 9.757l-2.458 1.465C36.041 6.128 29.47 2.838 22.4 2.838c-11.863 0-19.529 7.25-19.529 18.469 0 5.806 2.534 12.249 6.777 17.236 4.833 5.683 31.47 31.983 31.738 32.248l-2.03 2.009z"/>
        <path fill="#5F38FA" d="M9.257 19.5H6.5c0-8.554 5.746-14.3 14.3-14.3v2.86c-7.013 0-11.543 4.49-11.543 11.44"/>
    </g>
</svg>
