<svg width="40" height="40" viewBox="0 0 40 40" fill="none" xmlns="http://www.w3.org/2000/svg">
<path fill-rule="evenodd" clip-rule="evenodd" d="M0.70638 16.6502H7.3763C7.56338 16.6514 7.74256 16.7519 7.87484 16.93C8.00713 17.1081 8.08183 17.3492 8.08268 17.601V35.0531C8.08268 35.3057 8.00837 35.548 7.87599 35.727C7.74361 35.906 7.56394 36.0072 7.3763 36.0083H0.70638C0.518738 36.0072 0.339074 35.906 0.206695 35.727C0.074316 35.548 -1.97418e-06 35.3057 0 35.0531L0 17.6054C-1.97418e-06 17.3529 0.074316 17.1106 0.206695 16.9315C0.339074 16.7525 0.518738 16.6514 0.70638 16.6502ZM9.71029 34.3871V18.2101H15.1172C17.3958 18.7622 19.7005 20.436 21.9922 22.377H26.1914C28.0924 22.5304 29.0853 25.1243 27.2396 26.8288C25.7682 28.2791 23.8249 28.2002 21.8359 27.9592C20.4622 27.8672 20.4004 30.3516 21.8359 30.3604C22.3307 30.413 22.8711 30.2552 23.3464 30.2552C25.8301 30.2552 27.8776 29.6111 29.1309 26.969L29.7591 24.9754L36.0059 20.804C39.1309 19.4194 41.3509 23.823 39.0495 26.8814C34.6946 31.1686 30.0354 34.8658 25.14 37.9187C21.696 40.7405 18.2487 40.6441 14.8014 37.9187L9.71029 34.3871ZM31.9336 10.6386C31.8954 10.6013 31.852 10.5747 31.806 10.5604C31.7601 10.5461 31.7124 10.5445 31.6659 10.5555C31.6194 10.5666 31.5751 10.5901 31.5355 10.6247C31.4959 10.6593 31.4619 10.7043 31.4355 10.7569L31.11 11.3572C30.9952 11.2916 30.8765 11.2389 30.7552 11.1995C30.6315 11.16 30.5143 11.125 30.3874 11.0987L30.2897 10.31C30.2723 10.186 30.2213 10.0751 30.1465 9.9989C30.1078 9.96191 30.0637 9.93618 30.0172 9.92335C29.9707 9.91053 29.9227 9.91089 29.8763 9.92442L29.1439 10.0997C29.0518 10.1235 28.9696 10.1921 28.9128 10.2925C28.8832 10.3432 28.8623 10.4021 28.8516 10.465C28.841 10.5279 28.8407 10.5931 28.8509 10.6561L28.9486 11.3923C28.8356 11.4594 28.7267 11.5386 28.623 11.6289C28.516 11.7137 28.4138 11.8088 28.3171 11.9137L27.819 11.4755C27.7825 11.4376 27.7404 11.4105 27.6955 11.3962C27.6506 11.3818 27.6039 11.3805 27.5586 11.3923C27.5119 11.403 27.4673 11.4263 27.4276 11.461C27.3879 11.4956 27.3538 11.5408 27.3275 11.5938L26.9043 12.4044C26.8747 12.4552 26.8539 12.5141 26.8432 12.577C26.8325 12.6398 26.8322 12.7051 26.8424 12.7681C26.8494 12.8308 26.8665 12.8906 26.8923 12.9436C26.9182 12.9965 26.9522 13.0413 26.9922 13.0748L27.4382 13.513C27.3884 13.6671 27.3492 13.8269 27.321 13.9906C27.2871 14.1449 27.2589 14.3014 27.2363 14.4594L26.6504 14.5952C26.6043 14.6053 26.5602 14.6276 26.5206 14.6607C26.4809 14.6937 26.4465 14.737 26.4193 14.788C26.3913 14.839 26.3719 14.8975 26.3623 14.9595C26.3528 15.0215 26.3533 15.0856 26.3639 15.1473L26.4941 16.1376C26.5106 16.2621 26.5619 16.3734 26.6374 16.4487C26.6757 16.4869 26.7195 16.5141 26.766 16.5284C26.8125 16.5428 26.8607 16.5439 26.9076 16.5319L27.4414 16.4049C27.4901 16.5577 27.5489 16.7044 27.6172 16.843C27.6804 16.9952 27.7511 17.1416 27.8288 17.2812L27.4837 17.9428C27.4563 17.9934 27.4367 18.0509 27.4261 18.1119C27.4155 18.1728 27.4141 18.236 27.4219 18.2977C27.4401 18.4224 27.4939 18.5325 27.5716 18.6044L28.1836 19.1828C28.2217 19.22 28.265 19.2462 28.3109 19.2597C28.3569 19.2733 28.4044 19.274 28.4505 19.2617C28.5449 19.2399 28.6298 19.1711 28.6882 19.0689L29.0137 18.4555C29.1293 18.5224 29.2491 18.5752 29.3717 18.6132C29.4915 18.6573 29.6133 18.6909 29.7363 18.714L29.8372 19.5027C29.8531 19.6275 29.9045 19.7391 29.9805 19.8138C30.0183 19.8514 30.0618 19.8776 30.1079 19.8904C30.1539 19.9033 30.2015 19.9026 30.2474 19.8883L30.9831 19.713C31.0756 19.6908 31.1583 19.6218 31.2142 19.5202C31.2433 19.47 31.2639 19.4118 31.2746 19.3497C31.2853 19.2877 31.2858 19.2233 31.276 19.1609L31.1751 18.4029C31.2883 18.338 31.3972 18.2603 31.5007 18.1707C31.6081 18.083 31.7122 17.9823 31.8262 17.8859L32.3177 18.324C32.355 18.3632 32.3982 18.3909 32.4443 18.4053C32.4904 18.4197 32.5383 18.4203 32.5846 18.4073C32.6314 18.3968 32.676 18.3736 32.7158 18.3389C32.7555 18.3042 32.7896 18.2589 32.8158 18.2057L33.2454 17.382C33.2734 17.331 33.2928 17.2725 33.3024 17.2105C33.312 17.1485 33.3114 17.0844 33.3008 17.0227C33.2852 16.8953 33.234 16.7808 33.1576 16.7028L32.7018 16.2866C32.7526 16.1311 32.7929 15.9698 32.8223 15.8046C32.8535 15.6428 32.8784 15.479 32.8971 15.3138L33.4831 15.178C33.5752 15.1546 33.6576 15.0859 33.7142 14.9852C33.7422 14.9343 33.7616 14.8758 33.7712 14.8137C33.7807 14.7517 33.7802 14.6876 33.7695 14.6259L33.6393 13.6357C33.6216 13.5118 33.5706 13.401 33.4961 13.3246C33.4578 13.2863 33.414 13.2592 33.3675 13.2448C33.321 13.2305 33.2728 13.2293 33.2259 13.2413L32.6921 13.364C32.6396 13.2137 32.5809 13.0674 32.5163 12.9258C32.4541 12.7811 32.3833 12.6434 32.3047 12.514L32.6302 11.8436C32.659 11.7947 32.6796 11.7382 32.6909 11.6778C32.7021 11.6173 32.7036 11.5543 32.6953 11.493C32.6769 11.3673 32.6233 11.256 32.5456 11.1819L31.9401 10.6123H31.9206L31.9336 10.6386ZM25.3906 2.56764C25.4908 2.64945 25.5773 2.75837 25.6445 2.8875L26.2956 4.11436C26.3621 4.23997 26.4106 4.38112 26.4388 4.53062C26.4632 4.6837 26.4632 4.84199 26.4388 4.99507C26.4204 5.15036 26.3795 5.29925 26.3184 5.43323C26.2569 5.56403 26.1746 5.67479 26.0775 5.75748L25.5371 6.28765C25.5356 6.31098 25.5356 6.33443 25.5371 6.35776C25.5632 6.48483 25.5827 6.61628 25.6055 6.74334C25.6278 6.87922 25.6441 7.01675 25.6543 7.15522V7.20342L26.2207 7.33048C26.3357 7.35356 26.4459 7.40827 26.5444 7.49119C26.643 7.57411 26.7278 7.68348 26.7936 7.81246C26.8618 7.93623 26.9095 8.07814 26.9336 8.22872C26.9564 8.38054 26.9564 8.53697 26.9336 8.68879L26.7513 10.2005C26.7352 10.3563 26.6954 10.506 26.6343 10.6402C26.5733 10.7744 26.4923 10.8902 26.3965 10.9804C26.2991 11.0744 26.1882 11.1401 26.071 11.1732C25.9571 11.2039 25.8398 11.2039 25.7259 11.1732L25.0749 11.0286C25.0749 11.0505 25.0521 11.0768 25.0456 11.0943C24.9935 11.2126 24.9382 11.3265 24.8796 11.4448C24.821 11.5631 24.7624 11.6815 24.7038 11.7822L24.681 11.8217L25.0065 12.4439V12.4701C25.0744 12.6012 25.12 12.7508 25.14 12.9083C25.1629 13.0601 25.1629 13.2166 25.14 13.3684C25.1227 13.5234 25.0829 13.6723 25.0228 13.8065C24.9642 13.9407 24.8868 14.0582 24.7949 14.1527L23.877 15.029C23.7793 15.1242 23.6687 15.1927 23.5514 15.2306C23.4357 15.2659 23.3156 15.2659 23.1999 15.2306C23.085 15.2031 22.9748 15.1482 22.8743 15.0685C22.7758 14.9832 22.6916 14.8713 22.627 14.7398L22.2428 14.0169C22.2256 14.0215 22.2079 14.0215 22.1908 14.0169C22.0964 14.0475 21.9954 14.0826 21.8913 14.1089C21.7871 14.1352 21.6895 14.1571 21.5853 14.179C21.5714 14.1833 21.5569 14.1833 21.543 14.179L21.4518 14.937C21.4352 15.0936 21.3929 15.2432 21.3281 15.3752C21.2685 15.5074 21.1886 15.6209 21.0938 15.7082C21.0007 15.7973 20.8957 15.8613 20.7845 15.8966C20.6716 15.9251 20.5557 15.9251 20.4427 15.8966L19.3197 15.6468C19.2041 15.626 19.0929 15.5731 18.9932 15.4917C18.8935 15.4103 18.8074 15.302 18.7402 15.1736C18.6704 15.0425 18.6216 14.8933 18.597 14.7355C18.5741 14.5822 18.5741 14.4243 18.597 14.271L18.7077 13.3947C18.6903 13.3841 18.6739 13.3709 18.6589 13.3552L18.3984 13.1362C18.3073 13.0485 18.2227 12.974 18.1478 12.8952L18.1185 12.8645L17.6563 13.3027H17.6367C17.5393 13.394 17.4282 13.4554 17.3112 13.4823C17.1984 13.5131 17.0822 13.5131 16.9694 13.4823C16.8543 13.4585 16.7438 13.4049 16.6439 13.3246C16.5468 13.2445 16.4609 13.1422 16.39 13.0222L15.7389 11.7691C15.6706 11.6369 15.6219 11.4881 15.5957 11.3309C15.5712 11.1779 15.5712 11.0195 15.5957 10.8665C15.6146 10.7113 15.6554 10.5626 15.7161 10.4283C15.783 10.2996 15.8655 10.187 15.9603 10.0953L16.4974 9.58265C16.4943 9.55799 16.4943 9.53281 16.4974 9.50816C16.4746 9.38109 16.4486 9.24526 16.429 9.10505C16.4095 8.96484 16.3867 8.83339 16.377 8.69756V8.76328L15.8138 8.64059C15.6983 8.61645 15.5876 8.56132 15.4883 8.47847C15.3914 8.39415 15.3074 8.28556 15.2409 8.15861C15.1706 8.02839 15.1228 7.8787 15.1009 7.72045C15.0817 7.57554 15.0817 7.4272 15.1009 7.28229L15.2832 5.77062C15.2999 5.61498 15.3399 5.46555 15.4009 5.33145C15.4619 5.19735 15.5426 5.0814 15.638 4.99069C15.7354 4.89669 15.8463 4.83103 15.9635 4.7979C16.0774 4.76721 16.1947 4.76721 16.3086 4.7979L16.9596 4.94249L16.9889 4.87677C17.041 4.75846 17.0964 4.64454 17.1549 4.52623C17.2135 4.40793 17.2721 4.28963 17.334 4.18885L17.3535 4.14941L17.0736 3.50531C17.002 3.37507 16.952 3.22564 16.9271 3.06715C16.9059 2.92249 16.9059 2.77364 16.9271 2.62898C16.9448 2.4728 16.987 2.32346 17.0508 2.19082C17.1115 2.05591 17.1924 1.93951 17.2884 1.84905L18.1999 0.972723C18.2987 0.882182 18.409 0.816835 18.5254 0.779931C18.6391 0.747002 18.7567 0.747002 18.8704 0.779931C18.9857 0.8053 19.0962 0.860346 19.196 0.942052C19.2917 1.02713 19.3736 1.13743 19.4368 1.26629L19.8307 1.99803L19.8568 1.92354L20.153 1.82714C20.2539 1.79647 20.3548 1.77895 20.459 1.75704C20.459 1.75704 20.485 1.75704 20.5013 1.75704L20.5924 0.999013C20.6091 0.84244 20.6513 0.692789 20.7161 0.560849C20.777 0.428464 20.858 0.314961 20.9538 0.227844C21.0471 0.139439 21.1521 0.0755188 21.263 0.0394337C21.3761 0.0131005 21.4917 0.0131005 21.6048 0.0394337L22.7311 0.262897C22.8459 0.28823 22.9562 0.341695 23.0566 0.420636C23.1566 0.501217 23.2422 0.610419 23.3073 0.740496C23.3785 0.871074 23.4284 1.02037 23.4538 1.17866C23.4746 1.33368 23.4746 1.49248 23.4538 1.6475L23.3464 2.52382L23.3952 2.55888L23.6523 2.78234C23.7435 2.86559 23.8281 2.94446 23.9063 3.02333L23.9323 3.04962L24.401 2.61146C24.4974 2.51503 24.6087 2.44913 24.7266 2.41866C24.8405 2.38809 24.9577 2.38809 25.0716 2.41866C25.1877 2.44243 25.2986 2.49919 25.3971 2.58517L25.3906 2.56764ZM21.7448 5.63479C21.6248 5.57403 21.5004 5.52999 21.3737 5.50334C21.2478 5.47642 21.1203 5.46469 20.9928 5.46829C20.8757 5.47679 20.7593 5.4973 20.6445 5.52963H20.6217C20.5007 5.56916 20.3829 5.62494 20.2702 5.69613C20.1556 5.75872 20.0464 5.83807 19.9447 5.93274C19.8468 6.02515 19.7572 6.13248 19.6777 6.2526C19.5914 6.3752 19.514 6.50873 19.4466 6.65133C19.3815 6.7903 19.3259 6.93696 19.2806 7.08949C19.1905 7.41262 19.1495 7.75681 19.1602 8.10165C19.166 8.26077 19.1812 8.41902 19.2057 8.57487C19.2061 8.58509 19.2061 8.59533 19.2057 8.60554C19.2356 8.76965 19.2771 8.92957 19.3294 9.08314C19.377 9.22983 19.4359 9.36936 19.5052 9.4994C19.5739 9.6311 19.6536 9.75166 19.7428 9.85869C19.8331 9.97494 19.9324 10.0778 20.0391 10.1654C20.1416 10.2547 20.2507 10.3295 20.3646 10.3889C20.605 10.5088 20.8603 10.5653 21.1165 10.5554C21.2397 10.5554 21.3627 10.5422 21.4844 10.5159C21.4844 10.5159 21.4844 10.5159 21.5039 10.5159C21.737 10.4349 21.9575 10.2984 22.1549 10.1128C22.252 10.0191 22.3415 9.91192 22.4219 9.79297C22.5075 9.67057 22.5838 9.537 22.6497 9.39424C22.7161 9.2562 22.7717 9.10938 22.8158 8.95607C22.8624 8.79514 22.8951 8.62754 22.9134 8.45657C22.9477 8.27029 22.9641 8.07885 22.9622 7.88695C22.9558 7.73974 22.9417 7.59331 22.9199 7.44879C22.9199 7.44879 22.9199 7.44879 22.9199 7.41812C22.888 7.25022 22.8433 7.08723 22.7865 6.93175C22.7376 6.77898 22.6788 6.63235 22.6107 6.49359C22.5402 6.36381 22.4607 6.24349 22.373 6.1343C22.2811 6.0207 22.182 5.91808 22.0768 5.82758C21.9729 5.74158 21.864 5.66686 21.7513 5.60412L21.7448 5.63479ZM21.0938 3.64991C21.7338 3.64905 22.3597 3.90347 22.8924 4.38103C23.4251 4.8586 23.8407 5.5379 24.0869 6.33318C24.333 7.12847 24.3985 8.00408 24.2752 8.84946C24.1519 9.69485 23.8453 10.4721 23.3941 11.0831C22.9429 11.6942 22.3673 12.1115 21.74 12.2826C21.1127 12.4536 20.4618 12.3707 19.8695 12.0442C19.2772 11.7177 18.77 11.1623 18.4121 10.4481C18.0541 9.73398 17.8613 8.89306 17.8581 8.03155C17.8546 7.45828 17.9352 6.88973 18.0953 6.35845C18.2553 5.82716 18.4916 5.34357 18.7906 4.93536C19.0896 4.52715 19.4455 4.20233 19.838 3.9795C20.2304 3.75667 20.6516 3.6402 21.0775 3.63676L21.0938 3.64991ZM29.7982 12.9697C29.9893 12.9171 30.1864 12.9171 30.3776 12.9697C30.5608 13.0255 30.7343 13.1281 30.8887 13.272C31.0421 13.4172 31.1726 13.6019 31.2728 13.8153C31.3803 14.0327 31.4504 14.2797 31.4779 14.5383C31.5153 14.7958 31.5153 15.0607 31.4779 15.3182C31.434 15.5699 31.3568 15.8088 31.25 16.0237C31.1391 16.2282 31.0012 16.4035 30.8431 16.5407C30.6825 16.6848 30.5002 16.7791 30.3092 16.8167C30.1181 16.8694 29.921 16.8694 29.7298 16.8167C29.5471 16.7613 29.3738 16.6602 29.2188 16.5188C29.0658 16.3697 28.9345 16.184 28.8314 15.9711C28.7276 15.7527 28.6578 15.5082 28.6263 15.2525C28.5957 14.9888 28.6023 14.7198 28.6458 14.4594C28.6882 14.2132 28.7643 13.9799 28.8704 13.7715C28.98 13.5657 29.1168 13.3889 29.2741 13.2501C29.4373 13.1097 29.62 13.0158 29.8112 12.974L29.7982 12.9697ZM4.04297 19.5947C4.25022 19.5947 4.45285 19.6772 4.62539 19.8318C4.79792 19.9863 4.93268 20.2061 5.01271 20.4634C5.09275 20.7208 5.1145 21.0042 5.07523 21.2781C5.03596 21.552 4.93743 21.8042 4.79201 22.003C4.64658 22.2018 4.46076 22.3383 4.25789 22.3953C4.05501 22.4524 3.84414 22.4275 3.65175 22.3237C3.45937 22.2199 3.29406 22.0419 3.17659 21.8121C3.05913 21.5823 2.99474 21.3108 2.99154 21.0319C2.99111 20.8459 3.01801 20.6616 3.0707 20.4896C3.12338 20.3176 3.20082 20.1614 3.29854 20.0298C3.39626 19.8983 3.51234 19.7941 3.6401 19.7232C3.76785 19.6522 3.90477 19.616 4.04297 19.6166V19.5947Z" fill="black"/>
</svg>
