<svg width="64" height="89" viewBox="0 0 64 89" fill="none" xmlns="http://www.w3.org/2000/svg">
<g clip-path="url(#clip0_117_12)">
<path d="M31.8 0C16.8 0 3.80002 10.4 0.700016 25C-2.39998 39.6 5.30002 54.2 19.1 60.2V75.4H44.6V60.2C58.4 54.2 66.1 39.5 63 25C59.9 10.4 46.9 0 31.8 0ZM43.3 57.3L41.4 58.1V72.2H22.3V58.1L20.4 57.3C7.90001 52 1.00002 38.7 3.80002 25.6C6.50002 12.5 18.3 3.1 31.8 3.1C45.3 3.1 57.1 12.5 59.9 25.6C62.7 38.7 55.8 52 43.3 57.3Z" fill="#8F8F9B"/>
<path d="M19.5 79.8H45.5V82.4H19.5V79.8ZM25.3 88.9H38.3C40.1 88.9 41.5 87.7 41.5 86.3H22.1C22.1 87.7 23.6 88.9 25.3 88.9Z" fill="#5F38FA"/>
<path d="M8.9 31.2H6.5C6.5 17.6 17.6 6.5 31.2 6.5V8.9C18.9 8.9 8.9 18.9 8.9 31.2Z" fill="#682FE3"/>
</g>
<defs>
<clipPath id="clip0_117_12">
<rect width="63.7" height="88.9" fill="white"/>
</clipPath>
</defs>
</svg>
