<svg width="50" height="50" viewBox="0 0 50 50" fill="none" xmlns="http://www.w3.org/2000/svg">
<circle cx="25" cy="25" r="25" fill="#1E90FF"/>
<path d="M12.6193 37V19.5455H17.4602V37H12.6193ZM15.0511 17.2955C14.3314 17.2955 13.714 17.0568 13.1989 16.5795C12.6913 16.0947 12.4375 15.5152 12.4375 14.8409C12.4375 14.1742 12.6913 13.6023 13.1989 13.125C13.714 12.6402 14.3314 12.3977 15.0511 12.3977C15.7708 12.3977 16.3845 12.6402 16.892 13.125C17.4072 13.6023 17.6648 14.1742 17.6648 14.8409C17.6648 15.5152 17.4072 16.0947 16.892 16.5795C16.3845 17.0568 15.7708 17.2955 15.0511 17.2955ZM26.179 26.9091V37H21.3381V19.5455H25.9517V22.625H26.1562C26.5426 21.6098 27.1903 20.8068 28.0994 20.2159C29.0085 19.6174 30.1108 19.3182 31.4062 19.3182C32.6184 19.3182 33.6752 19.5833 34.5767 20.1136C35.4782 20.6439 36.179 21.4015 36.679 22.3864C37.179 23.3636 37.429 24.5303 37.429 25.8864V37H32.5881V26.75C32.5956 25.6818 32.3229 24.8485 31.7699 24.25C31.2169 23.6439 30.4555 23.3409 29.4858 23.3409C28.8343 23.3409 28.2585 23.4811 27.7585 23.7614C27.2661 24.0417 26.8797 24.4508 26.5994 24.9886C26.3267 25.5189 26.1866 26.1591 26.179 26.9091Z" fill="white"/>
</svg>
