<svg width="40" height="40" viewBox="0 0 40 40" fill="none" xmlns="http://www.w3.org/2000/svg">
<circle cx="20" cy="20" r="20" fill="white"/>
<path d="M10.7145 29V15.9091H14.3452V29H10.7145ZM12.5384 14.2216C11.9986 14.2216 11.5355 14.0426 11.1491 13.6847C10.7685 13.321 10.5781 12.8864 10.5781 12.3807C10.5781 11.8807 10.7685 11.4517 11.1491 11.0938C11.5355 10.7301 11.9986 10.5483 12.5384 10.5483C13.0781 10.5483 13.5384 10.7301 13.919 11.0938C14.3054 11.4517 14.4986 11.8807 14.4986 12.3807C14.4986 12.8864 14.3054 13.321 13.919 13.6847C13.5384 14.0426 13.0781 14.2216 12.5384 14.2216ZM20.8842 21.4318V29H17.2536V15.9091H20.7138V18.2188H20.8672C21.157 17.4574 21.6428 16.8551 22.3246 16.4119C23.0064 15.9631 23.8331 15.7386 24.8047 15.7386C25.7138 15.7386 26.5064 15.9375 27.1825 16.3352C27.8587 16.733 28.3842 17.3011 28.7592 18.0398C29.1342 18.7727 29.3217 19.6477 29.3217 20.6648V29H25.6911V21.3125C25.6967 20.5114 25.4922 19.8864 25.0774 19.4375C24.6626 18.983 24.0916 18.7557 23.3643 18.7557C22.8757 18.7557 22.4439 18.8608 22.0689 19.071C21.6996 19.2812 21.4098 19.5881 21.1996 19.9915C20.995 20.3892 20.8899 20.8693 20.8842 21.4318Z" fill="#1E90FF"/>
</svg>
