<svg width="153" height="45" viewBox="0 0 153 45" fill="none" xmlns="http://www.w3.org/2000/svg">
<path d="M60.9531 14.0195H56.6289L56.6055 12.2031H60.5312C61.1797 12.2031 61.7461 12.0938 62.2305 11.875C62.7148 11.6562 63.0898 11.3438 63.3555 10.9375C63.6289 10.5234 63.7656 10.0312 63.7656 9.46094C63.7656 8.83594 63.6445 8.32812 63.4023 7.9375C63.168 7.53906 62.8047 7.25 62.3125 7.07031C61.8281 6.88281 61.2109 6.78906 60.4609 6.78906H57.1328V22H54.8711V4.9375H60.4609C61.3359 4.9375 62.1172 5.02734 62.8047 5.20703C63.4922 5.37891 64.0742 5.65234 64.5508 6.02734C65.0352 6.39453 65.4023 6.86328 65.6523 7.43359C65.9023 8.00391 66.0273 8.6875 66.0273 9.48438C66.0273 10.1875 65.8477 10.8242 65.4883 11.3945C65.1289 11.957 64.6289 12.418 63.9883 12.7773C63.3555 13.1367 62.6133 13.3672 61.7617 13.4688L60.9531 14.0195ZM60.8477 22H55.7383L57.0156 20.1602H60.8477C61.5664 20.1602 62.1758 20.0352 62.6758 19.7852C63.1836 19.5352 63.5703 19.1836 63.8359 18.7305C64.1016 18.2695 64.2344 17.7266 64.2344 17.1016C64.2344 16.4688 64.1211 15.9219 63.8945 15.4609C63.668 15 63.3125 14.6445 62.8281 14.3945C62.3438 14.1445 61.7188 14.0195 60.9531 14.0195H57.7305L57.7539 12.2031H62.1602L62.6406 12.8594C63.4609 12.9297 64.1562 13.1641 64.7266 13.5625C65.2969 13.9531 65.7305 14.4531 66.0273 15.0625C66.332 15.6719 66.4844 16.3438 66.4844 17.0781C66.4844 18.1406 66.25 19.0391 65.7812 19.7734C65.3203 20.5 64.668 21.0547 63.8242 21.4375C62.9805 21.8125 61.9883 22 60.8477 22ZM77.2539 19.0703V9.32031H79.4336V22H77.3594L77.2539 19.0703ZM77.6641 16.3984L78.5664 16.375C78.5664 17.2188 78.4766 18 78.2969 18.7188C78.125 19.4297 77.8438 20.0469 77.4531 20.5703C77.0625 21.0938 76.5508 21.5039 75.918 21.8008C75.2852 22.0898 74.5156 22.2344 73.6094 22.2344C72.9922 22.2344 72.4258 22.1445 71.9102 21.9648C71.4023 21.7852 70.9648 21.5078 70.5977 21.1328C70.2305 20.7578 69.9453 20.2695 69.7422 19.668C69.5469 19.0664 69.4492 18.3438 69.4492 17.5V9.32031H71.6172V17.5234C71.6172 18.0938 71.6797 18.5664 71.8047 18.9414C71.9375 19.3086 72.1133 19.6016 72.332 19.8203C72.5586 20.0312 72.8086 20.1797 73.082 20.2656C73.3633 20.3516 73.6523 20.3945 73.9492 20.3945C74.8711 20.3945 75.6016 20.2188 76.1406 19.8672C76.6797 19.5078 77.0664 19.0273 77.3008 18.4258C77.543 17.8164 77.6641 17.1406 77.6641 16.3984ZM90.1211 18.6367C90.1211 18.3242 90.0508 18.0352 89.9102 17.7695C89.7773 17.4961 89.5 17.25 89.0781 17.0312C88.6641 16.8047 88.0391 16.6094 87.2031 16.4453C86.5 16.2969 85.8633 16.1211 85.293 15.918C84.7305 15.7148 84.25 15.4688 83.8516 15.1797C83.4609 14.8906 83.1602 14.5508 82.9492 14.1602C82.7383 13.7695 82.6328 13.3125 82.6328 12.7891C82.6328 12.2891 82.7422 11.8164 82.9609 11.3711C83.1875 10.9258 83.5039 10.5312 83.9102 10.1875C84.3242 9.84375 84.8203 9.57422 85.3984 9.37891C85.9766 9.18359 86.6211 9.08594 87.332 9.08594C88.3477 9.08594 89.2148 9.26562 89.9336 9.625C90.6523 9.98438 91.2031 10.4648 91.5859 11.0664C91.9688 11.6602 92.1602 12.3203 92.1602 13.0469H89.9922C89.9922 12.6953 89.8867 12.3555 89.6758 12.0273C89.4727 11.6914 89.1719 11.4141 88.7734 11.1953C88.3828 10.9766 87.9023 10.8672 87.332 10.8672C86.7305 10.8672 86.2422 10.9609 85.8672 11.1484C85.5 11.3281 85.2305 11.5586 85.0586 11.8398C84.8945 12.1211 84.8125 12.418 84.8125 12.7305C84.8125 12.9648 84.8516 13.1758 84.9297 13.3633C85.0156 13.543 85.1641 13.7109 85.375 13.8672C85.5859 14.0156 85.8828 14.1562 86.2656 14.2891C86.6484 14.4219 87.1367 14.5547 87.7305 14.6875C88.7695 14.9219 89.625 15.2031 90.2969 15.5312C90.9688 15.8594 91.4688 16.2617 91.7969 16.7383C92.125 17.2148 92.2891 17.793 92.2891 18.4727C92.2891 19.0273 92.1719 19.5352 91.9375 19.9961C91.7109 20.457 91.3789 20.8555 90.9414 21.1914C90.5117 21.5195 89.9961 21.7773 89.3945 21.9648C88.8008 22.1445 88.1328 22.2344 87.3906 22.2344C86.2734 22.2344 85.3281 22.0352 84.5547 21.6367C83.7812 21.2383 83.1953 20.7227 82.7969 20.0898C82.3984 19.457 82.1992 18.7891 82.1992 18.0859H84.3789C84.4102 18.6797 84.582 19.1523 84.8945 19.5039C85.207 19.8477 85.5898 20.0938 86.043 20.2422C86.4961 20.3828 86.9453 20.4531 87.3906 20.4531C87.9844 20.4531 88.4805 20.375 88.8789 20.2188C89.2852 20.0625 89.5938 19.8477 89.8047 19.5742C90.0156 19.3008 90.1211 18.9883 90.1211 18.6367ZM97.4922 9.32031V22H95.3125V9.32031H97.4922ZM95.1484 5.95703C95.1484 5.60547 95.2539 5.30859 95.4648 5.06641C95.6836 4.82422 96.0039 4.70312 96.4258 4.70312C96.8398 4.70312 97.1562 4.82422 97.375 5.06641C97.6016 5.30859 97.7148 5.60547 97.7148 5.95703C97.7148 6.29297 97.6016 6.58203 97.375 6.82422C97.1562 7.05859 96.8398 7.17578 96.4258 7.17578C96.0039 7.17578 95.6836 7.05859 95.4648 6.82422C95.2539 6.58203 95.1484 6.29297 95.1484 5.95703ZM103.141 12.0273V22H100.973V9.32031H103.023L103.141 12.0273ZM102.625 15.1797L101.723 15.1445C101.73 14.2773 101.859 13.4766 102.109 12.7422C102.359 12 102.711 11.3555 103.164 10.8086C103.617 10.2617 104.156 9.83984 104.781 9.54297C105.414 9.23828 106.113 9.08594 106.879 9.08594C107.504 9.08594 108.066 9.17188 108.566 9.34375C109.066 9.50781 109.492 9.77344 109.844 10.1406C110.203 10.5078 110.477 10.9844 110.664 11.5703C110.852 12.1484 110.945 12.8555 110.945 13.6914V22H108.766V13.668C108.766 13.0039 108.668 12.4727 108.473 12.0742C108.277 11.668 107.992 11.375 107.617 11.1953C107.242 11.0078 106.781 10.9141 106.234 10.9141C105.695 10.9141 105.203 11.0273 104.758 11.2539C104.32 11.4805 103.941 11.793 103.621 12.1914C103.309 12.5898 103.062 13.0469 102.883 13.5625C102.711 14.0703 102.625 14.6094 102.625 15.1797ZM119.5 22.2344C118.617 22.2344 117.816 22.0859 117.098 21.7891C116.387 21.4844 115.773 21.0586 115.258 20.5117C114.75 19.9648 114.359 19.3164 114.086 18.5664C113.812 17.8164 113.676 16.9961 113.676 16.1055V15.6133C113.676 14.582 113.828 13.6641 114.133 12.8594C114.438 12.0469 114.852 11.3594 115.375 10.7969C115.898 10.2344 116.492 9.80859 117.156 9.51953C117.82 9.23047 118.508 9.08594 119.219 9.08594C120.125 9.08594 120.906 9.24219 121.562 9.55469C122.227 9.86719 122.77 10.3047 123.191 10.8672C123.613 11.4219 123.926 12.0781 124.129 12.8359C124.332 13.5859 124.434 14.4062 124.434 15.2969V16.2695H114.965V14.5H122.266V14.3359C122.234 13.7734 122.117 13.2266 121.914 12.6953C121.719 12.1641 121.406 11.7266 120.977 11.3828C120.547 11.0391 119.961 10.8672 119.219 10.8672C118.727 10.8672 118.273 10.9727 117.859 11.1836C117.445 11.3867 117.09 11.6914 116.793 12.0977C116.496 12.5039 116.266 13 116.102 13.5859C115.938 14.1719 115.855 14.8477 115.855 15.6133V16.1055C115.855 16.707 115.938 17.2734 116.102 17.8047C116.273 18.3281 116.52 18.7891 116.84 19.1875C117.168 19.5859 117.562 19.8984 118.023 20.125C118.492 20.3516 119.023 20.4648 119.617 20.4648C120.383 20.4648 121.031 20.3086 121.562 19.9961C122.094 19.6836 122.559 19.2656 122.957 18.7422L124.27 19.7852C123.996 20.1992 123.648 20.5938 123.227 20.9688C122.805 21.3438 122.285 21.6484 121.668 21.8828C121.059 22.1172 120.336 22.2344 119.5 22.2344ZM134.348 18.6367C134.348 18.3242 134.277 18.0352 134.137 17.7695C134.004 17.4961 133.727 17.25 133.305 17.0312C132.891 16.8047 132.266 16.6094 131.43 16.4453C130.727 16.2969 130.09 16.1211 129.52 15.918C128.957 15.7148 128.477 15.4688 128.078 15.1797C127.688 14.8906 127.387 14.5508 127.176 14.1602C126.965 13.7695 126.859 13.3125 126.859 12.7891C126.859 12.2891 126.969 11.8164 127.188 11.3711C127.414 10.9258 127.73 10.5312 128.137 10.1875C128.551 9.84375 129.047 9.57422 129.625 9.37891C130.203 9.18359 130.848 9.08594 131.559 9.08594C132.574 9.08594 133.441 9.26562 134.16 9.625C134.879 9.98438 135.43 10.4648 135.812 11.0664C136.195 11.6602 136.387 12.3203 136.387 13.0469H134.219C134.219 12.6953 134.113 12.3555 133.902 12.0273C133.699 11.6914 133.398 11.4141 133 11.1953C132.609 10.9766 132.129 10.8672 131.559 10.8672C130.957 10.8672 130.469 10.9609 130.094 11.1484C129.727 11.3281 129.457 11.5586 129.285 11.8398C129.121 12.1211 129.039 12.418 129.039 12.7305C129.039 12.9648 129.078 13.1758 129.156 13.3633C129.242 13.543 129.391 13.7109 129.602 13.8672C129.812 14.0156 130.109 14.1562 130.492 14.2891C130.875 14.4219 131.363 14.5547 131.957 14.6875C132.996 14.9219 133.852 15.2031 134.523 15.5312C135.195 15.8594 135.695 16.2617 136.023 16.7383C136.352 17.2148 136.516 17.793 136.516 18.4727C136.516 19.0273 136.398 19.5352 136.164 19.9961C135.938 20.457 135.605 20.8555 135.168 21.1914C134.738 21.5195 134.223 21.7773 133.621 21.9648C133.027 22.1445 132.359 22.2344 131.617 22.2344C130.5 22.2344 129.555 22.0352 128.781 21.6367C128.008 21.2383 127.422 20.7227 127.023 20.0898C126.625 19.457 126.426 18.7891 126.426 18.0859H128.605C128.637 18.6797 128.809 19.1523 129.121 19.5039C129.434 19.8477 129.816 20.0938 130.27 20.2422C130.723 20.3828 131.172 20.4531 131.617 20.4531C132.211 20.4531 132.707 20.375 133.105 20.2188C133.512 20.0625 133.82 19.8477 134.031 19.5742C134.242 19.3008 134.348 18.9883 134.348 18.6367ZM146.746 18.6367C146.746 18.3242 146.676 18.0352 146.535 17.7695C146.402 17.4961 146.125 17.25 145.703 17.0312C145.289 16.8047 144.664 16.6094 143.828 16.4453C143.125 16.2969 142.488 16.1211 141.918 15.918C141.355 15.7148 140.875 15.4688 140.477 15.1797C140.086 14.8906 139.785 14.5508 139.574 14.1602C139.363 13.7695 139.258 13.3125 139.258 12.7891C139.258 12.2891 139.367 11.8164 139.586 11.3711C139.812 10.9258 140.129 10.5312 140.535 10.1875C140.949 9.84375 141.445 9.57422 142.023 9.37891C142.602 9.18359 143.246 9.08594 143.957 9.08594C144.973 9.08594 145.84 9.26562 146.559 9.625C147.277 9.98438 147.828 10.4648 148.211 11.0664C148.594 11.6602 148.785 12.3203 148.785 13.0469H146.617C146.617 12.6953 146.512 12.3555 146.301 12.0273C146.098 11.6914 145.797 11.4141 145.398 11.1953C145.008 10.9766 144.527 10.8672 143.957 10.8672C143.355 10.8672 142.867 10.9609 142.492 11.1484C142.125 11.3281 141.855 11.5586 141.684 11.8398C141.52 12.1211 141.438 12.418 141.438 12.7305C141.438 12.9648 141.477 13.1758 141.555 13.3633C141.641 13.543 141.789 13.7109 142 13.8672C142.211 14.0156 142.508 14.1562 142.891 14.2891C143.273 14.4219 143.762 14.5547 144.355 14.6875C145.395 14.9219 146.25 15.2031 146.922 15.5312C147.594 15.8594 148.094 16.2617 148.422 16.7383C148.75 17.2148 148.914 17.793 148.914 18.4727C148.914 19.0273 148.797 19.5352 148.562 19.9961C148.336 20.457 148.004 20.8555 147.566 21.1914C147.137 21.5195 146.621 21.7773 146.02 21.9648C145.426 22.1445 144.758 22.2344 144.016 22.2344C142.898 22.2344 141.953 22.0352 141.18 21.6367C140.406 21.2383 139.82 20.7227 139.422 20.0898C139.023 19.457 138.824 18.7891 138.824 18.0859H141.004C141.035 18.6797 141.207 19.1523 141.52 19.5039C141.832 19.8477 142.215 20.0938 142.668 20.2422C143.121 20.3828 143.57 20.4531 144.016 20.4531C144.609 20.4531 145.105 20.375 145.504 20.2188C145.91 20.0625 146.219 19.8477 146.43 19.5742C146.641 19.3008 146.746 18.9883 146.746 18.6367ZM60.7305 35.4785H62.6055C62.5078 36.377 62.2507 37.181 61.834 37.8906C61.4173 38.6003 60.8281 39.1634 60.0664 39.5801C59.3047 39.9902 58.3542 40.1953 57.2148 40.1953C56.3815 40.1953 55.623 40.0391 54.9395 39.7266C54.2624 39.4141 53.6797 38.9714 53.1914 38.3984C52.7031 37.819 52.3255 37.1257 52.0586 36.3184C51.7982 35.5046 51.668 34.5996 51.668 33.6035V32.1875C51.668 31.1914 51.7982 30.2897 52.0586 29.4824C52.3255 28.6686 52.7064 27.972 53.2012 27.3926C53.7025 26.8132 54.3047 26.3672 55.0078 26.0547C55.7109 25.7422 56.502 25.5859 57.3809 25.5859C58.4551 25.5859 59.3633 25.7878 60.1055 26.1914C60.8477 26.5951 61.4238 27.1549 61.834 27.8711C62.2507 28.5807 62.5078 29.4043 62.6055 30.3418H60.7305C60.6393 29.6777 60.4701 29.1081 60.2227 28.6328C59.9753 28.151 59.6237 27.7799 59.168 27.5195C58.7122 27.2591 58.1165 27.1289 57.3809 27.1289C56.7493 27.1289 56.1927 27.2493 55.7109 27.4902C55.2357 27.7311 54.8353 28.0729 54.5098 28.5156C54.1908 28.9583 53.9499 29.4889 53.7871 30.1074C53.6243 30.7259 53.543 31.4128 53.543 32.168V33.6035C53.543 34.3001 53.6146 34.9544 53.7578 35.5664C53.9076 36.1784 54.1322 36.7155 54.4316 37.1777C54.7311 37.64 55.112 38.0046 55.5742 38.2715C56.0365 38.5319 56.5833 38.6621 57.2148 38.6621C58.0156 38.6621 58.6536 38.5352 59.1289 38.2812C59.6042 38.0273 59.9622 37.6628 60.2031 37.1875C60.4505 36.7122 60.6263 36.1426 60.7305 35.4785ZM63.4219 34.834V34.6094C63.4219 33.8477 63.5326 33.1413 63.7539 32.4902C63.9753 31.8327 64.2943 31.263 64.7109 30.7812C65.1276 30.293 65.6322 29.9154 66.2246 29.6484C66.8171 29.375 67.4811 29.2383 68.2168 29.2383C68.959 29.2383 69.6263 29.375 70.2188 29.6484C70.8177 29.9154 71.3255 30.293 71.7422 30.7812C72.1654 31.263 72.4876 31.8327 72.709 32.4902C72.9303 33.1413 73.041 33.8477 73.041 34.6094V34.834C73.041 35.5957 72.9303 36.3021 72.709 36.9531C72.4876 37.6042 72.1654 38.1738 71.7422 38.6621C71.3255 39.1439 70.821 39.5215 70.2285 39.7949C69.6426 40.0618 68.9785 40.1953 68.2363 40.1953C67.4941 40.1953 66.8268 40.0618 66.2344 39.7949C65.6419 39.5215 65.1341 39.1439 64.7109 38.6621C64.2943 38.1738 63.9753 37.6042 63.7539 36.9531C63.5326 36.3021 63.4219 35.5957 63.4219 34.834ZM65.2285 34.6094V34.834C65.2285 35.3613 65.2904 35.8594 65.4141 36.3281C65.5378 36.7904 65.7233 37.2005 65.9707 37.5586C66.2246 37.9167 66.5404 38.1999 66.918 38.4082C67.2956 38.61 67.735 38.7109 68.2363 38.7109C68.7311 38.7109 69.1641 38.61 69.5352 38.4082C69.9128 38.1999 70.2253 37.9167 70.4727 37.5586C70.7201 37.2005 70.9056 36.7904 71.0293 36.3281C71.1595 35.8594 71.2246 35.3613 71.2246 34.834V34.6094C71.2246 34.0885 71.1595 33.597 71.0293 33.1348C70.9056 32.666 70.7168 32.2526 70.4629 31.8945C70.2155 31.5299 69.903 31.2435 69.5254 31.0352C69.1543 30.8268 68.7181 30.7227 68.2168 30.7227C67.722 30.7227 67.2858 30.8268 66.9082 31.0352C66.5371 31.2435 66.2246 31.5299 65.9707 31.8945C65.7233 32.2526 65.5378 32.666 65.4141 33.1348C65.2904 33.597 65.2285 34.0885 65.2285 34.6094ZM76.1133 31.6895V40H74.3066V29.4336H76.0156L76.1133 31.6895ZM75.6836 34.3164L74.9316 34.2871C74.9382 33.5645 75.0456 32.8971 75.2539 32.2852C75.4622 31.6667 75.7552 31.1296 76.1328 30.6738C76.5104 30.2181 76.9596 29.8665 77.4805 29.6191C78.0078 29.3652 78.5905 29.2383 79.2285 29.2383C79.7493 29.2383 80.2181 29.3099 80.6348 29.4531C81.0514 29.5898 81.4062 29.8112 81.6992 30.1172C81.9987 30.4232 82.2266 30.8203 82.3828 31.3086C82.5391 31.7904 82.6172 32.3796 82.6172 33.0762V40H80.8008V33.0566C80.8008 32.5033 80.7194 32.0605 80.5566 31.7285C80.3939 31.39 80.1562 31.1458 79.8438 30.9961C79.5312 30.8398 79.1471 30.7617 78.6914 30.7617C78.2422 30.7617 77.832 30.8561 77.4609 31.0449C77.0964 31.2337 76.7806 31.4941 76.5137 31.8262C76.2533 32.1582 76.0482 32.5391 75.8984 32.9688C75.7552 33.3919 75.6836 33.8411 75.6836 34.3164ZM90.5137 37.1973C90.5137 36.9368 90.4551 36.696 90.3379 36.4746C90.2272 36.2467 89.9961 36.0417 89.6445 35.8594C89.2995 35.6706 88.7786 35.5078 88.082 35.3711C87.4961 35.2474 86.9655 35.1009 86.4902 34.9316C86.0215 34.7624 85.6211 34.5573 85.2891 34.3164C84.9635 34.0755 84.7129 33.7923 84.5371 33.4668C84.3613 33.1413 84.2734 32.7604 84.2734 32.3242C84.2734 31.9076 84.3646 31.5137 84.5469 31.1426C84.7357 30.7715 84.9993 30.4427 85.3379 30.1562C85.6829 29.8698 86.0964 29.6452 86.5781 29.4824C87.0599 29.3197 87.597 29.2383 88.1895 29.2383C89.0358 29.2383 89.7585 29.388 90.3574 29.6875C90.9564 29.987 91.4154 30.3874 91.7344 30.8887C92.0534 31.3835 92.2129 31.9336 92.2129 32.5391H90.4062C90.4062 32.2461 90.3184 31.9629 90.1426 31.6895C89.9733 31.4095 89.7227 31.1784 89.3906 30.9961C89.0651 30.8138 88.6647 30.7227 88.1895 30.7227C87.6882 30.7227 87.2812 30.8008 86.9688 30.957C86.6628 31.1068 86.4382 31.2988 86.2949 31.5332C86.1582 31.7676 86.0898 32.015 86.0898 32.2754C86.0898 32.4707 86.1224 32.6465 86.1875 32.8027C86.2591 32.9525 86.3828 33.0924 86.5586 33.2227C86.7344 33.3464 86.9818 33.4635 87.3008 33.5742C87.6198 33.6849 88.0267 33.7956 88.5215 33.9062C89.3874 34.1016 90.1003 34.3359 90.6602 34.6094C91.2201 34.8828 91.6367 35.2181 91.9102 35.6152C92.1836 36.0124 92.3203 36.4941 92.3203 37.0605C92.3203 37.5228 92.2227 37.946 92.0273 38.3301C91.8385 38.7142 91.5618 39.0462 91.1973 39.3262C90.8392 39.5996 90.4095 39.8145 89.9082 39.9707C89.4134 40.1204 88.8568 40.1953 88.2383 40.1953C87.3073 40.1953 86.5195 40.0293 85.875 39.6973C85.2305 39.3652 84.7422 38.9355 84.4102 38.4082C84.0781 37.8809 83.9121 37.3242 83.9121 36.7383H85.7285C85.7546 37.2331 85.8978 37.627 86.1582 37.9199C86.4186 38.2064 86.7376 38.4115 87.1152 38.5352C87.4928 38.6523 87.8672 38.7109 88.2383 38.7109C88.7331 38.7109 89.1465 38.6458 89.4785 38.5156C89.8171 38.3854 90.0742 38.2064 90.25 37.9785C90.4258 37.7507 90.5137 37.4902 90.5137 37.1973ZM100.158 37.5586V29.4336H101.975V40H100.246L100.158 37.5586ZM100.5 35.332L101.252 35.3125C101.252 36.0156 101.177 36.6667 101.027 37.2656C100.884 37.8581 100.65 38.3724 100.324 38.8086C99.9987 39.2448 99.5723 39.5866 99.0449 39.834C98.5176 40.0749 97.8763 40.1953 97.1211 40.1953C96.6068 40.1953 96.1348 40.1204 95.7051 39.9707C95.2819 39.821 94.9173 39.5898 94.6113 39.2773C94.3053 38.9648 94.0677 38.5579 93.8984 38.0566C93.7357 37.5553 93.6543 36.9531 93.6543 36.25V29.4336H95.4609V36.2695C95.4609 36.7448 95.513 37.1387 95.6172 37.4512C95.7279 37.7572 95.8743 38.0013 96.0566 38.1836C96.2454 38.3594 96.4538 38.4831 96.6816 38.5547C96.916 38.6263 97.1569 38.6621 97.4043 38.6621C98.1725 38.6621 98.7812 38.5156 99.2305 38.2227C99.6797 37.9232 100.002 37.5228 100.197 37.0215C100.399 36.5137 100.5 35.9505 100.5 35.332ZM105.691 25V40H103.875V25H105.691ZM112.016 29.4336V30.8203H106.303V29.4336H112.016ZM108.236 26.8652H110.043V37.3828C110.043 37.7409 110.098 38.0111 110.209 38.1934C110.32 38.3757 110.463 38.4961 110.639 38.5547C110.814 38.6133 111.003 38.6426 111.205 38.6426C111.355 38.6426 111.511 38.6296 111.674 38.6035C111.843 38.571 111.97 38.5449 112.055 38.5254L112.064 40C111.921 40.0456 111.732 40.0879 111.498 40.127C111.27 40.1725 110.993 40.1953 110.668 40.1953C110.225 40.1953 109.818 40.1074 109.447 39.9316C109.076 39.7559 108.78 39.4629 108.559 39.0527C108.344 38.6361 108.236 38.0762 108.236 37.373V26.8652ZM119.365 38.1934V32.7539C119.365 32.3372 119.281 31.9759 119.111 31.6699C118.949 31.3574 118.701 31.1165 118.369 30.9473C118.037 30.778 117.627 30.6934 117.139 30.6934C116.683 30.6934 116.283 30.7715 115.938 30.9277C115.599 31.084 115.332 31.2891 115.137 31.543C114.948 31.7969 114.854 32.0703 114.854 32.3633H113.047C113.047 31.9857 113.145 31.6113 113.34 31.2402C113.535 30.8691 113.815 30.5339 114.18 30.2344C114.551 29.9284 114.993 29.6875 115.508 29.5117C116.029 29.3294 116.608 29.2383 117.246 29.2383C118.014 29.2383 118.691 29.3685 119.277 29.6289C119.87 29.8893 120.332 30.2832 120.664 30.8105C121.003 31.3314 121.172 31.9857 121.172 32.7734V37.6953C121.172 38.0469 121.201 38.4212 121.26 38.8184C121.325 39.2155 121.419 39.5573 121.543 39.8438V40H119.658C119.567 39.7917 119.495 39.515 119.443 39.1699C119.391 38.8184 119.365 38.4928 119.365 38.1934ZM119.678 33.5938L119.697 34.8633H117.871C117.357 34.8633 116.898 34.9056 116.494 34.9902C116.09 35.0684 115.752 35.1888 115.479 35.3516C115.205 35.5143 114.997 35.7194 114.854 35.9668C114.71 36.2077 114.639 36.4909 114.639 36.8164C114.639 37.1484 114.714 37.4512 114.863 37.7246C115.013 37.998 115.238 38.2161 115.537 38.3789C115.843 38.5352 116.217 38.6133 116.66 38.6133C117.214 38.6133 117.702 38.4961 118.125 38.2617C118.548 38.0273 118.883 37.7409 119.131 37.4023C119.385 37.0638 119.521 36.735 119.541 36.416L120.312 37.2852C120.267 37.5586 120.143 37.8613 119.941 38.1934C119.74 38.5254 119.469 38.8444 119.131 39.1504C118.799 39.4499 118.402 39.7005 117.939 39.9023C117.484 40.0977 116.969 40.1953 116.396 40.1953C115.68 40.1953 115.052 40.0553 114.512 39.7754C113.978 39.4954 113.561 39.1211 113.262 38.6523C112.969 38.1771 112.822 37.6465 112.822 37.0605C112.822 36.4941 112.933 35.9961 113.154 35.5664C113.376 35.1302 113.695 34.7689 114.111 34.4824C114.528 34.1895 115.029 33.9681 115.615 33.8184C116.201 33.6686 116.855 33.5938 117.578 33.5938H119.678ZM127.438 29.4336V30.8203H121.725V29.4336H127.438ZM123.658 26.8652H125.465V37.3828C125.465 37.7409 125.52 38.0111 125.631 38.1934C125.742 38.3757 125.885 38.4961 126.061 38.5547C126.236 38.6133 126.425 38.6426 126.627 38.6426C126.777 38.6426 126.933 38.6296 127.096 38.6035C127.265 38.571 127.392 38.5449 127.477 38.5254L127.486 40C127.343 40.0456 127.154 40.0879 126.92 40.127C126.692 40.1725 126.415 40.1953 126.09 40.1953C125.647 40.1953 125.24 40.1074 124.869 39.9316C124.498 39.7559 124.202 39.4629 123.98 39.0527C123.766 38.6361 123.658 38.0762 123.658 37.373V26.8652ZM130.52 29.4336V40H128.703V29.4336H130.52ZM128.566 26.6309C128.566 26.3379 128.654 26.0905 128.83 25.8887C129.012 25.6868 129.279 25.5859 129.631 25.5859C129.976 25.5859 130.24 25.6868 130.422 25.8887C130.611 26.0905 130.705 26.3379 130.705 26.6309C130.705 26.9108 130.611 27.1517 130.422 27.3535C130.24 27.5488 129.976 27.6465 129.631 27.6465C129.279 27.6465 129.012 27.5488 128.83 27.3535C128.654 27.1517 128.566 26.9108 128.566 26.6309ZM131.941 34.834V34.6094C131.941 33.8477 132.052 33.1413 132.273 32.4902C132.495 31.8327 132.814 31.263 133.23 30.7812C133.647 30.293 134.152 29.9154 134.744 29.6484C135.337 29.375 136.001 29.2383 136.736 29.2383C137.479 29.2383 138.146 29.375 138.738 29.6484C139.337 29.9154 139.845 30.293 140.262 30.7812C140.685 31.263 141.007 31.8327 141.229 32.4902C141.45 33.1413 141.561 33.8477 141.561 34.6094V34.834C141.561 35.5957 141.45 36.3021 141.229 36.9531C141.007 37.6042 140.685 38.1738 140.262 38.6621C139.845 39.1439 139.34 39.5215 138.748 39.7949C138.162 40.0618 137.498 40.1953 136.756 40.1953C136.014 40.1953 135.346 40.0618 134.754 39.7949C134.161 39.5215 133.654 39.1439 133.23 38.6621C132.814 38.1738 132.495 37.6042 132.273 36.9531C132.052 36.3021 131.941 35.5957 131.941 34.834ZM133.748 34.6094V34.834C133.748 35.3613 133.81 35.8594 133.934 36.3281C134.057 36.7904 134.243 37.2005 134.49 37.5586C134.744 37.9167 135.06 38.1999 135.438 38.4082C135.815 38.61 136.255 38.7109 136.756 38.7109C137.251 38.7109 137.684 38.61 138.055 38.4082C138.432 38.1999 138.745 37.9167 138.992 37.5586C139.24 37.2005 139.425 36.7904 139.549 36.3281C139.679 35.8594 139.744 35.3613 139.744 34.834V34.6094C139.744 34.0885 139.679 33.597 139.549 33.1348C139.425 32.666 139.236 32.2526 138.982 31.8945C138.735 31.5299 138.423 31.2435 138.045 31.0352C137.674 30.8268 137.238 30.7227 136.736 30.7227C136.242 30.7227 135.805 30.8268 135.428 31.0352C135.057 31.2435 134.744 31.5299 134.49 31.8945C134.243 32.2526 134.057 32.666 133.934 33.1348C133.81 33.597 133.748 34.0885 133.748 34.6094ZM144.633 31.6895V40H142.826V29.4336H144.535L144.633 31.6895ZM144.203 34.3164L143.451 34.2871C143.458 33.5645 143.565 32.8971 143.773 32.2852C143.982 31.6667 144.275 31.1296 144.652 30.6738C145.03 30.2181 145.479 29.8665 146 29.6191C146.527 29.3652 147.11 29.2383 147.748 29.2383C148.269 29.2383 148.738 29.3099 149.154 29.4531C149.571 29.5898 149.926 29.8112 150.219 30.1172C150.518 30.4232 150.746 30.8203 150.902 31.3086C151.059 31.7904 151.137 32.3796 151.137 33.0762V40H149.32V33.0566C149.32 32.5033 149.239 32.0605 149.076 31.7285C148.913 31.39 148.676 31.1458 148.363 30.9961C148.051 30.8398 147.667 30.7617 147.211 30.7617C146.762 30.7617 146.352 30.8561 145.98 31.0449C145.616 31.2337 145.3 31.4941 145.033 31.8262C144.773 32.1582 144.568 32.5391 144.418 32.9688C144.275 33.3919 144.203 33.8411 144.203 34.3164Z" fill="white"/>
<circle cx="22.5" cy="22.5" r="22.5" fill="#1E90FF"/>
<g filter="url(#filter0_d_11_6)">
<line x1="14.25" y1="22" x2="14.25" y2="11" stroke="white" stroke-width="3.5"/>
</g>
<g filter="url(#filter1_d_11_6)">
<line x1="21.25" y1="27" x2="21.25" y2="7" stroke="white" stroke-width="3.5"/>
</g>
<g filter="url(#filter2_d_11_6)">
<line x1="28.25" y1="27" x2="28.25" y2="4" stroke="white" stroke-width="3.5"/>
</g>
<line x1="1.85215" y1="31.6679" x2="13.5521" y2="20.8679" stroke="white" stroke-width="2.5"/>
<line x1="13.9426" y1="19.7143" x2="25.0901" y2="31.0837" stroke="white" stroke-width="2.5"/>
<path d="M40.5095 16.2224C40.5218 15.5322 39.9723 14.9626 39.2821 14.9502L28.0339 14.7482C27.3437 14.7358 26.7741 15.2853 26.7617 15.9756C26.7493 16.6658 27.2988 17.2354 27.989 17.2478L37.9874 17.4273L37.8079 27.4257C37.7955 28.116 38.345 28.6856 39.0352 28.698C39.7255 28.7104 40.2951 28.1609 40.3075 27.4706L40.5095 16.2224ZM24.4479 32.226L40.1275 17.0996L38.3918 15.3004L22.7121 30.4268L24.4479 32.226Z" fill="white"/>
<defs>
<filter id="filter0_d_11_6" x="8.5" y="11" width="11.5" height="19" filterUnits="userSpaceOnUse" color-interpolation-filters="sRGB">
<feFlood flood-opacity="0" result="BackgroundImageFix"/>
<feColorMatrix in="SourceAlpha" type="matrix" values="0 0 0 0 0 0 0 0 0 0 0 0 0 0 0 0 0 0 127 0" result="hardAlpha"/>
<feOffset dy="4"/>
<feGaussianBlur stdDeviation="2"/>
<feComposite in2="hardAlpha" operator="out"/>
<feColorMatrix type="matrix" values="0 0 0 0 0 0 0 0 0 0 0 0 0 0 0 0 0 0 0.7 0"/>
<feBlend mode="normal" in2="BackgroundImageFix" result="effect1_dropShadow_11_6"/>
<feBlend mode="normal" in="SourceGraphic" in2="effect1_dropShadow_11_6" result="shape"/>
</filter>
<filter id="filter1_d_11_6" x="15.5" y="5" width="11.5" height="28" filterUnits="userSpaceOnUse" color-interpolation-filters="sRGB">
<feFlood flood-opacity="0" result="BackgroundImageFix"/>
<feColorMatrix in="SourceAlpha" type="matrix" values="0 0 0 0 0 0 0 0 0 0 0 0 0 0 0 0 0 0 127 0" result="hardAlpha"/>
<feOffset dy="2"/>
<feGaussianBlur stdDeviation="2"/>
<feComposite in2="hardAlpha" operator="out"/>
<feColorMatrix type="matrix" values="0 0 0 0 0 0 0 0 0 0 0 0 0 0 0 0 0 0 0.7 0"/>
<feBlend mode="normal" in2="BackgroundImageFix" result="effect1_dropShadow_11_6"/>
<feBlend mode="normal" in="SourceGraphic" in2="effect1_dropShadow_11_6" result="shape"/>
</filter>
<filter id="filter2_d_11_6" x="22.5" y="2" width="11.5" height="31" filterUnits="userSpaceOnUse" color-interpolation-filters="sRGB">
<feFlood flood-opacity="0" result="BackgroundImageFix"/>
<feColorMatrix in="SourceAlpha" type="matrix" values="0 0 0 0 0 0 0 0 0 0 0 0 0 0 0 0 0 0 127 0" result="hardAlpha"/>
<feOffset dy="2"/>
<feGaussianBlur stdDeviation="2"/>
<feComposite in2="hardAlpha" operator="out"/>
<feColorMatrix type="matrix" values="0 0 0 0 0 0 0 0 0 0 0 0 0 0 0 0 0 0 0.7 0"/>
<feBlend mode="normal" in2="BackgroundImageFix" result="effect1_dropShadow_11_6"/>
<feBlend mode="normal" in="SourceGraphic" in2="effect1_dropShadow_11_6" result="shape"/>
</filter>
</defs>
</svg>
