<svg width="134" height="45" viewBox="0 0 134 45" fill="none" xmlns="http://www.w3.org/2000/svg">
<path d="M61.877 16.4785H63.752C63.6543 17.377 63.3971 18.181 62.9805 18.8906C62.5638 19.6003 61.9746 20.1634 61.2129 20.5801C60.4512 20.9902 59.5007 21.1953 58.3613 21.1953C57.528 21.1953 56.7695 21.0391 56.0859 20.7266C55.4089 20.4141 54.8262 19.9714 54.3379 19.3984C53.8496 18.819 53.472 18.1257 53.2051 17.3184C52.9447 16.5046 52.8145 15.5996 52.8145 14.6035V13.1875C52.8145 12.1914 52.9447 11.2897 53.2051 10.4824C53.472 9.66862 53.8529 8.97201 54.3477 8.39258C54.849 7.81315 55.4512 7.36719 56.1543 7.05469C56.8574 6.74219 57.6484 6.58594 58.5273 6.58594C59.6016 6.58594 60.5098 6.78776 61.252 7.19141C61.9941 7.59505 62.5703 8.15495 62.9805 8.87109C63.3971 9.58073 63.6543 10.4043 63.752 11.3418H61.877C61.7858 10.6777 61.6165 10.1081 61.3691 9.63281C61.1217 9.15104 60.7702 8.77995 60.3145 8.51953C59.8587 8.25911 59.263 8.12891 58.5273 8.12891C57.8958 8.12891 57.3392 8.24935 56.8574 8.49023C56.3822 8.73112 55.9818 9.07292 55.6562 9.51562C55.3372 9.95833 55.0964 10.4889 54.9336 11.1074C54.7708 11.7259 54.6895 12.4128 54.6895 13.168V14.6035C54.6895 15.3001 54.7611 15.9544 54.9043 16.5664C55.054 17.1784 55.2786 17.7155 55.5781 18.1777C55.8776 18.64 56.2585 19.0046 56.7207 19.2715C57.1829 19.5319 57.7298 19.6621 58.3613 19.6621C59.1621 19.6621 59.8001 19.5352 60.2754 19.2812C60.7507 19.0273 61.1087 18.6628 61.3496 18.1875C61.597 17.7122 61.7728 17.1426 61.877 16.4785ZM65.5684 15.834V15.6094C65.5684 14.8477 65.679 14.1413 65.9004 13.4902C66.1217 12.8327 66.4408 12.263 66.8574 11.7812C67.2741 11.293 67.7786 10.9154 68.3711 10.6484C68.9635 10.375 69.6276 10.2383 70.3633 10.2383C71.1055 10.2383 71.7728 10.375 72.3652 10.6484C72.9642 10.9154 73.472 11.293 73.8887 11.7812C74.3118 12.263 74.6341 12.8327 74.8555 13.4902C75.0768 14.1413 75.1875 14.8477 75.1875 15.6094V15.834C75.1875 16.5957 75.0768 17.3021 74.8555 17.9531C74.6341 18.6042 74.3118 19.1738 73.8887 19.6621C73.472 20.1439 72.9674 20.5215 72.375 20.7949C71.7891 21.0618 71.125 21.1953 70.3828 21.1953C69.6406 21.1953 68.9733 21.0618 68.3809 20.7949C67.7884 20.5215 67.2806 20.1439 66.8574 19.6621C66.4408 19.1738 66.1217 18.6042 65.9004 17.9531C65.679 17.3021 65.5684 16.5957 65.5684 15.834ZM67.375 15.6094V15.834C67.375 16.3613 67.4368 16.8594 67.5605 17.3281C67.6842 17.7904 67.8698 18.2005 68.1172 18.5586C68.3711 18.9167 68.6868 19.1999 69.0645 19.4082C69.4421 19.61 69.8815 19.7109 70.3828 19.7109C70.8776 19.7109 71.3105 19.61 71.6816 19.4082C72.0592 19.1999 72.3717 18.9167 72.6191 18.5586C72.8665 18.2005 73.0521 17.7904 73.1758 17.3281C73.306 16.8594 73.3711 16.3613 73.3711 15.834V15.6094C73.3711 15.0885 73.306 14.597 73.1758 14.1348C73.0521 13.666 72.8633 13.2526 72.6094 12.8945C72.362 12.5299 72.0495 12.2435 71.6719 12.0352C71.3008 11.8268 70.8646 11.7227 70.3633 11.7227C69.8685 11.7227 69.4323 11.8268 69.0547 12.0352C68.6836 12.2435 68.3711 12.5299 68.1172 12.8945C67.8698 13.2526 67.6842 13.666 67.5605 14.1348C67.4368 14.597 67.375 15.0885 67.375 15.6094ZM84.1133 18.9492V6H85.9297V21H84.2695L84.1133 18.9492ZM77.0039 15.834V15.6289C77.0039 14.8216 77.1016 14.0892 77.2969 13.4316C77.4987 12.7676 77.7819 12.1979 78.1465 11.7227C78.5176 11.2474 78.957 10.8828 79.4648 10.6289C79.9792 10.3685 80.5521 10.2383 81.1836 10.2383C81.8477 10.2383 82.4271 10.3555 82.9219 10.5898C83.4232 10.8177 83.8464 11.153 84.1914 11.5957C84.543 12.0319 84.8197 12.5592 85.0215 13.1777C85.2233 13.7962 85.3633 14.4961 85.4414 15.2773V16.1758C85.3698 16.9505 85.2298 17.6471 85.0215 18.2656C84.8197 18.8841 84.543 19.4115 84.1914 19.8477C83.8464 20.2839 83.4232 20.6191 82.9219 20.8535C82.4206 21.0814 81.8346 21.1953 81.1641 21.1953C80.5456 21.1953 79.9792 21.0618 79.4648 20.7949C78.957 20.528 78.5176 20.1536 78.1465 19.6719C77.7819 19.1901 77.4987 18.6237 77.2969 17.9727C77.1016 17.3151 77.0039 16.6022 77.0039 15.834ZM78.8203 15.6289V15.834C78.8203 16.3613 78.8724 16.8561 78.9766 17.3184C79.0872 17.7806 79.2565 18.1875 79.4844 18.5391C79.7122 18.8906 80.002 19.1673 80.3535 19.3691C80.7051 19.5645 81.125 19.6621 81.6133 19.6621C82.2122 19.6621 82.7038 19.5352 83.0879 19.2812C83.4785 19.0273 83.791 18.6921 84.0254 18.2754C84.2598 17.8587 84.4421 17.4062 84.5723 16.918V14.5645C84.4941 14.2064 84.3802 13.8613 84.2305 13.5293C84.0872 13.1908 83.8984 12.8913 83.6641 12.6309C83.4362 12.3639 83.153 12.1523 82.8145 11.9961C82.4824 11.8398 82.0885 11.7617 81.6328 11.7617C81.138 11.7617 80.7116 11.8659 80.3535 12.0742C80.002 12.276 79.7122 12.556 79.4844 12.9141C79.2565 13.2656 79.0872 13.6758 78.9766 14.1445C78.8724 14.6068 78.8203 15.1016 78.8203 15.6289ZM93.127 21.1953C92.3913 21.1953 91.724 21.0716 91.125 20.8242C90.5326 20.5703 90.0215 20.2155 89.5918 19.7598C89.1686 19.304 88.8431 18.7637 88.6152 18.1387C88.3874 17.5137 88.2734 16.8301 88.2734 16.0879V15.6777C88.2734 14.8184 88.4004 14.0534 88.6543 13.3828C88.9082 12.7057 89.2533 12.1328 89.6895 11.6641C90.1257 11.1953 90.6204 10.8405 91.1738 10.5996C91.7272 10.3587 92.3001 10.2383 92.8926 10.2383C93.6478 10.2383 94.2988 10.3685 94.8457 10.6289C95.3991 10.8893 95.8516 11.2539 96.2031 11.7227C96.5547 12.1849 96.8151 12.7318 96.9844 13.3633C97.1536 13.9883 97.2383 14.6719 97.2383 15.4141V16.2246H89.3477V14.75H95.4316V14.6133C95.4056 14.1445 95.3079 13.6888 95.1387 13.2461C94.9759 12.8034 94.7155 12.4388 94.3574 12.1523C93.9993 11.8659 93.5111 11.7227 92.8926 11.7227C92.4824 11.7227 92.1048 11.8105 91.7598 11.9863C91.4147 12.1556 91.1185 12.4095 90.8711 12.748C90.6237 13.0866 90.4316 13.5 90.2949 13.9883C90.1582 14.4766 90.0898 15.0397 90.0898 15.6777V16.0879C90.0898 16.5892 90.1582 17.0612 90.2949 17.5039C90.4382 17.9401 90.6432 18.3242 90.9102 18.6562C91.1836 18.9883 91.5124 19.2487 91.8965 19.4375C92.2871 19.6263 92.7298 19.7207 93.2246 19.7207C93.8626 19.7207 94.403 19.5905 94.8457 19.3301C95.2884 19.0697 95.6758 18.7214 96.0078 18.2852L97.1016 19.1543C96.8737 19.4993 96.584 19.8281 96.2324 20.1406C95.8809 20.4531 95.4479 20.707 94.9336 20.9023C94.4258 21.0977 93.8236 21.1953 93.127 21.1953ZM101.311 6V21H99.4941V6H101.311ZM106.174 10.4336V21H104.357V10.4336H106.174ZM104.221 7.63086C104.221 7.33789 104.309 7.09049 104.484 6.88867C104.667 6.68685 104.934 6.58594 105.285 6.58594C105.63 6.58594 105.894 6.68685 106.076 6.88867C106.265 7.09049 106.359 7.33789 106.359 7.63086C106.359 7.91081 106.265 8.15169 106.076 8.35352C105.894 8.54883 105.63 8.64648 105.285 8.64648C104.934 8.64648 104.667 8.54883 104.484 8.35352C104.309 8.15169 104.221 7.91081 104.221 7.63086ZM110.881 12.6895V21H109.074V10.4336H110.783L110.881 12.6895ZM110.451 15.3164L109.699 15.2871C109.706 14.5645 109.813 13.8971 110.021 13.2852C110.23 12.6667 110.523 12.1296 110.9 11.6738C111.278 11.2181 111.727 10.8665 112.248 10.6191C112.775 10.3652 113.358 10.2383 113.996 10.2383C114.517 10.2383 114.986 10.3099 115.402 10.4531C115.819 10.5898 116.174 10.8112 116.467 11.1172C116.766 11.4232 116.994 11.8203 117.15 12.3086C117.307 12.7904 117.385 13.3796 117.385 14.0762V21H115.568V14.0566C115.568 13.5033 115.487 13.0605 115.324 12.7285C115.161 12.39 114.924 12.1458 114.611 11.9961C114.299 11.8398 113.915 11.7617 113.459 11.7617C113.01 11.7617 112.6 11.8561 112.229 12.0449C111.864 12.2337 111.548 12.4941 111.281 12.8262C111.021 13.1582 110.816 13.5391 110.666 13.9688C110.523 14.3919 110.451 14.8411 110.451 15.3164ZM124.514 21.1953C123.778 21.1953 123.111 21.0716 122.512 20.8242C121.919 20.5703 121.408 20.2155 120.979 19.7598C120.555 19.304 120.23 18.7637 120.002 18.1387C119.774 17.5137 119.66 16.8301 119.66 16.0879V15.6777C119.66 14.8184 119.787 14.0534 120.041 13.3828C120.295 12.7057 120.64 12.1328 121.076 11.6641C121.512 11.1953 122.007 10.8405 122.561 10.5996C123.114 10.3587 123.687 10.2383 124.279 10.2383C125.035 10.2383 125.686 10.3685 126.232 10.6289C126.786 10.8893 127.238 11.2539 127.59 11.7227C127.941 12.1849 128.202 12.7318 128.371 13.3633C128.54 13.9883 128.625 14.6719 128.625 15.4141V16.2246H120.734V14.75H126.818V14.6133C126.792 14.1445 126.695 13.6888 126.525 13.2461C126.363 12.8034 126.102 12.4388 125.744 12.1523C125.386 11.8659 124.898 11.7227 124.279 11.7227C123.869 11.7227 123.492 11.8105 123.146 11.9863C122.801 12.1556 122.505 12.4095 122.258 12.748C122.01 13.0866 121.818 13.5 121.682 13.9883C121.545 14.4766 121.477 15.0397 121.477 15.6777V16.0879C121.477 16.5892 121.545 17.0612 121.682 17.5039C121.825 17.9401 122.03 18.3242 122.297 18.6562C122.57 18.9883 122.899 19.2487 123.283 19.4375C123.674 19.6263 124.117 19.7207 124.611 19.7207C125.249 19.7207 125.79 19.5905 126.232 19.3301C126.675 19.0697 127.062 18.7214 127.395 18.2852L128.488 19.1543C128.26 19.4993 127.971 19.8281 127.619 20.1406C127.268 20.4531 126.835 20.707 126.32 20.9023C125.812 21.0977 125.21 21.1953 124.514 21.1953ZM57.5293 34.4785H59.4043C59.3066 35.377 59.0495 36.181 58.6328 36.8906C58.2161 37.6003 57.627 38.1634 56.8652 38.5801C56.1035 38.9902 55.153 39.1953 54.0137 39.1953C53.1803 39.1953 52.4219 39.0391 51.7383 38.7266C51.0612 38.4141 50.4785 37.9714 49.9902 37.3984C49.502 36.819 49.1243 36.1257 48.8574 35.3184C48.597 34.5046 48.4668 33.5996 48.4668 32.6035V31.1875C48.4668 30.1914 48.597 29.2897 48.8574 28.4824C49.1243 27.6686 49.5052 26.972 50 26.3926C50.5013 25.8132 51.1035 25.3672 51.8066 25.0547C52.5098 24.7422 53.3008 24.5859 54.1797 24.5859C55.2539 24.5859 56.1621 24.7878 56.9043 25.1914C57.6465 25.5951 58.2227 26.1549 58.6328 26.8711C59.0495 27.5807 59.3066 28.4043 59.4043 29.3418H57.5293C57.4382 28.6777 57.2689 28.1081 57.0215 27.6328C56.7741 27.151 56.4225 26.7799 55.9668 26.5195C55.5111 26.2591 54.9154 26.1289 54.1797 26.1289C53.5482 26.1289 52.9915 26.2493 52.5098 26.4902C52.0345 26.7311 51.6341 27.0729 51.3086 27.5156C50.9896 27.9583 50.7487 28.4889 50.5859 29.1074C50.4232 29.7259 50.3418 30.4128 50.3418 31.168V32.6035C50.3418 33.3001 50.4134 33.9544 50.5566 34.5664C50.7064 35.1784 50.931 35.7155 51.2305 36.1777C51.5299 36.64 51.9108 37.0046 52.373 37.2715C52.8353 37.5319 53.3822 37.6621 54.0137 37.6621C54.8145 37.6621 55.4525 37.5352 55.9277 37.2812C56.403 37.0273 56.7611 36.6628 57.002 36.1875C57.2493 35.7122 57.4251 35.1426 57.5293 34.4785ZM60.2207 33.834V33.6094C60.2207 32.8477 60.3314 32.1413 60.5527 31.4902C60.7741 30.8327 61.0931 30.263 61.5098 29.7812C61.9264 29.293 62.431 28.9154 63.0234 28.6484C63.6159 28.375 64.2799 28.2383 65.0156 28.2383C65.7578 28.2383 66.4251 28.375 67.0176 28.6484C67.6165 28.9154 68.1243 29.293 68.541 29.7812C68.9642 30.263 69.2865 30.8327 69.5078 31.4902C69.7292 32.1413 69.8398 32.8477 69.8398 33.6094V33.834C69.8398 34.5957 69.7292 35.3021 69.5078 35.9531C69.2865 36.6042 68.9642 37.1738 68.541 37.6621C68.1243 38.1439 67.6198 38.5215 67.0273 38.7949C66.4414 39.0618 65.7773 39.1953 65.0352 39.1953C64.293 39.1953 63.6257 39.0618 63.0332 38.7949C62.4408 38.5215 61.9329 38.1439 61.5098 37.6621C61.0931 37.1738 60.7741 36.6042 60.5527 35.9531C60.3314 35.3021 60.2207 34.5957 60.2207 33.834ZM62.0273 33.6094V33.834C62.0273 34.3613 62.0892 34.8594 62.2129 35.3281C62.3366 35.7904 62.5221 36.2005 62.7695 36.5586C63.0234 36.9167 63.3392 37.1999 63.7168 37.4082C64.0944 37.61 64.5339 37.7109 65.0352 37.7109C65.5299 37.7109 65.9629 37.61 66.334 37.4082C66.7116 37.1999 67.0241 36.9167 67.2715 36.5586C67.5189 36.2005 67.7044 35.7904 67.8281 35.3281C67.9583 34.8594 68.0234 34.3613 68.0234 33.834V33.6094C68.0234 33.0885 67.9583 32.597 67.8281 32.1348C67.7044 31.666 67.5156 31.2526 67.2617 30.8945C67.0143 30.5299 66.7018 30.2435 66.3242 30.0352C65.9531 29.8268 65.5169 29.7227 65.0156 29.7227C64.5208 29.7227 64.0846 29.8268 63.707 30.0352C63.3359 30.2435 63.0234 30.5299 62.7695 30.8945C62.5221 31.2526 62.3366 31.666 62.2129 32.1348C62.0892 32.597 62.0273 33.0885 62.0273 33.6094ZM72.9121 30.6895V39H71.1055V28.4336H72.8145L72.9121 30.6895ZM72.4824 33.3164L71.7305 33.2871C71.737 32.5645 71.8444 31.8971 72.0527 31.2852C72.2611 30.6667 72.554 30.1296 72.9316 29.6738C73.3092 29.2181 73.7585 28.8665 74.2793 28.6191C74.8066 28.3652 75.3893 28.2383 76.0273 28.2383C76.5482 28.2383 77.0169 28.3099 77.4336 28.4531C77.8503 28.5898 78.2051 28.8112 78.498 29.1172C78.7975 29.4232 79.0254 29.8203 79.1816 30.3086C79.3379 30.7904 79.416 31.3796 79.416 32.0762V39H77.5996V32.0566C77.5996 31.5033 77.5182 31.0605 77.3555 30.7285C77.1927 30.39 76.9551 30.1458 76.6426 29.9961C76.3301 29.8398 75.946 29.7617 75.4902 29.7617C75.041 29.7617 74.6309 29.8561 74.2598 30.0449C73.8952 30.2337 73.5794 30.4941 73.3125 30.8262C73.0521 31.1582 72.847 31.5391 72.6973 31.9688C72.554 32.3919 72.4824 32.8411 72.4824 33.3164ZM87.3125 36.1973C87.3125 35.9368 87.2539 35.696 87.1367 35.4746C87.026 35.2467 86.7949 35.0417 86.4434 34.8594C86.0983 34.6706 85.5775 34.5078 84.8809 34.3711C84.2949 34.2474 83.7643 34.1009 83.2891 33.9316C82.8203 33.7624 82.4199 33.5573 82.0879 33.3164C81.7624 33.0755 81.5117 32.7923 81.3359 32.4668C81.1602 32.1413 81.0723 31.7604 81.0723 31.3242C81.0723 30.9076 81.1634 30.5137 81.3457 30.1426C81.5345 29.7715 81.7982 29.4427 82.1367 29.1562C82.4818 28.8698 82.8952 28.6452 83.377 28.4824C83.8587 28.3197 84.3958 28.2383 84.9883 28.2383C85.8346 28.2383 86.5573 28.388 87.1562 28.6875C87.7552 28.987 88.2142 29.3874 88.5332 29.8887C88.8522 30.3835 89.0117 30.9336 89.0117 31.5391H87.2051C87.2051 31.2461 87.1172 30.9629 86.9414 30.6895C86.7721 30.4095 86.5215 30.1784 86.1895 29.9961C85.8639 29.8138 85.4635 29.7227 84.9883 29.7227C84.487 29.7227 84.0801 29.8008 83.7676 29.957C83.4616 30.1068 83.237 30.2988 83.0938 30.5332C82.957 30.7676 82.8887 31.015 82.8887 31.2754C82.8887 31.4707 82.9212 31.6465 82.9863 31.8027C83.0579 31.9525 83.1816 32.0924 83.3574 32.2227C83.5332 32.3464 83.7806 32.4635 84.0996 32.5742C84.4186 32.6849 84.8255 32.7956 85.3203 32.9062C86.1862 33.1016 86.8991 33.3359 87.459 33.6094C88.0189 33.8828 88.4355 34.2181 88.709 34.6152C88.9824 35.0124 89.1191 35.4941 89.1191 36.0605C89.1191 36.5228 89.0215 36.946 88.8262 37.3301C88.6374 37.7142 88.3607 38.0462 87.9961 38.3262C87.638 38.5996 87.2083 38.8145 86.707 38.9707C86.2122 39.1204 85.6556 39.1953 85.0371 39.1953C84.1061 39.1953 83.3184 39.0293 82.6738 38.6973C82.0293 38.3652 81.541 37.9355 81.209 37.4082C80.877 36.8809 80.7109 36.3242 80.7109 35.7383H82.5273C82.5534 36.2331 82.6966 36.627 82.957 36.9199C83.2174 37.2064 83.5365 37.4115 83.9141 37.5352C84.2917 37.6523 84.666 37.7109 85.0371 37.7109C85.5319 37.7109 85.9453 37.6458 86.2773 37.5156C86.6159 37.3854 86.873 37.2064 87.0488 36.9785C87.2246 36.7507 87.3125 36.4902 87.3125 36.1973ZM96.957 36.5586V28.4336H98.7734V39H97.0449L96.957 36.5586ZM97.2988 34.332L98.0508 34.3125C98.0508 35.0156 97.9759 35.6667 97.8262 36.2656C97.6829 36.8581 97.4486 37.3724 97.123 37.8086C96.7975 38.2448 96.3711 38.5866 95.8438 38.834C95.3164 39.0749 94.6751 39.1953 93.9199 39.1953C93.4056 39.1953 92.9336 39.1204 92.5039 38.9707C92.0807 38.821 91.7161 38.5898 91.4102 38.2773C91.1042 37.9648 90.8665 37.5579 90.6973 37.0566C90.5345 36.5553 90.4531 35.9531 90.4531 35.25V28.4336H92.2598V35.2695C92.2598 35.7448 92.3118 36.1387 92.416 36.4512C92.5267 36.7572 92.6732 37.0013 92.8555 37.1836C93.0443 37.3594 93.2526 37.4831 93.4805 37.5547C93.7148 37.6263 93.9557 37.6621 94.2031 37.6621C94.9714 37.6621 95.5801 37.5156 96.0293 37.2227C96.4785 36.9232 96.8008 36.5228 96.9961 36.0215C97.1979 35.5137 97.2988 34.9505 97.2988 34.332ZM102.49 24V39H100.674V24H102.49ZM108.814 28.4336V29.8203H103.102V28.4336H108.814ZM105.035 25.8652H106.842V36.3828C106.842 36.7409 106.897 37.0111 107.008 37.1934C107.118 37.3757 107.262 37.4961 107.438 37.5547C107.613 37.6133 107.802 37.6426 108.004 37.6426C108.154 37.6426 108.31 37.6296 108.473 37.6035C108.642 37.571 108.769 37.5449 108.854 37.5254L108.863 39C108.72 39.0456 108.531 39.0879 108.297 39.127C108.069 39.1725 107.792 39.1953 107.467 39.1953C107.024 39.1953 106.617 39.1074 106.246 38.9316C105.875 38.7559 105.579 38.4629 105.357 38.0527C105.143 37.6361 105.035 37.0762 105.035 36.373V25.8652ZM111.896 28.4336V39H110.08V28.4336H111.896ZM109.943 25.6309C109.943 25.3379 110.031 25.0905 110.207 24.8887C110.389 24.6868 110.656 24.5859 111.008 24.5859C111.353 24.5859 111.617 24.6868 111.799 24.8887C111.988 25.0905 112.082 25.3379 112.082 25.6309C112.082 25.9108 111.988 26.1517 111.799 26.3535C111.617 26.5488 111.353 26.6465 111.008 26.6465C110.656 26.6465 110.389 26.5488 110.207 26.3535C110.031 26.1517 109.943 25.9108 109.943 25.6309ZM115.604 30.6895V39H113.797V28.4336H115.506L115.604 30.6895ZM115.174 33.3164L114.422 33.2871C114.428 32.5645 114.536 31.8971 114.744 31.2852C114.952 30.6667 115.245 30.1296 115.623 29.6738C116.001 29.2181 116.45 28.8665 116.971 28.6191C117.498 28.3652 118.081 28.2383 118.719 28.2383C119.24 28.2383 119.708 28.3099 120.125 28.4531C120.542 28.5898 120.896 28.8112 121.189 29.1172C121.489 29.4232 121.717 29.8203 121.873 30.3086C122.029 30.7904 122.107 31.3796 122.107 32.0762V39H120.291V32.0566C120.291 31.5033 120.21 31.0605 120.047 30.7285C119.884 30.39 119.646 30.1458 119.334 29.9961C119.021 29.8398 118.637 29.7617 118.182 29.7617C117.732 29.7617 117.322 29.8561 116.951 30.0449C116.587 30.2337 116.271 30.4941 116.004 30.8262C115.743 31.1582 115.538 31.5391 115.389 31.9688C115.245 32.3919 115.174 32.8411 115.174 33.3164ZM130.697 28.4336H132.338V38.7754C132.338 39.7064 132.149 40.5007 131.771 41.1582C131.394 41.8158 130.867 42.3138 130.189 42.6523C129.519 42.9974 128.744 43.1699 127.865 43.1699C127.501 43.1699 127.071 43.1113 126.576 42.9941C126.088 42.8835 125.606 42.6914 125.131 42.418C124.662 42.151 124.268 41.7897 123.949 41.334L124.896 40.2598C125.339 40.7936 125.801 41.1647 126.283 41.373C126.771 41.5814 127.253 41.6855 127.729 41.6855C128.301 41.6855 128.796 41.5781 129.213 41.3633C129.63 41.1484 129.952 40.8294 130.18 40.4062C130.414 39.9896 130.531 39.4753 130.531 38.8633V30.7578L130.697 28.4336ZM123.422 33.834V33.6289C123.422 32.8216 123.516 32.0892 123.705 31.4316C123.9 30.7676 124.177 30.1979 124.535 29.7227C124.9 29.2474 125.339 28.8828 125.854 28.6289C126.368 28.3685 126.947 28.2383 127.592 28.2383C128.256 28.2383 128.835 28.3555 129.33 28.5898C129.831 28.8177 130.255 29.153 130.6 29.5957C130.951 30.0319 131.228 30.5592 131.43 31.1777C131.632 31.7962 131.771 32.4961 131.85 33.2773V34.1758C131.778 34.9505 131.638 35.6471 131.43 36.2656C131.228 36.8841 130.951 37.4115 130.6 37.8477C130.255 38.2839 129.831 38.6191 129.33 38.8535C128.829 39.0814 128.243 39.1953 127.572 39.1953C126.941 39.1953 126.368 39.0618 125.854 38.7949C125.346 38.528 124.91 38.1536 124.545 37.6719C124.18 37.1901 123.9 36.6237 123.705 35.9727C123.516 35.3151 123.422 34.6022 123.422 33.834ZM125.229 33.6289V33.834C125.229 34.3613 125.281 34.8561 125.385 35.3184C125.495 35.7806 125.661 36.1875 125.883 36.5391C126.111 36.8906 126.4 37.1673 126.752 37.3691C127.104 37.5645 127.523 37.6621 128.012 37.6621C128.611 37.6621 129.105 37.5352 129.496 37.2812C129.887 37.0273 130.196 36.6921 130.424 36.2754C130.658 35.8587 130.84 35.4062 130.971 34.918V32.5645C130.899 32.2064 130.788 31.8613 130.639 31.5293C130.495 31.1908 130.307 30.8913 130.072 30.6309C129.844 30.3639 129.561 30.1523 129.223 29.9961C128.884 29.8398 128.487 29.7617 128.031 29.7617C127.536 29.7617 127.11 29.8659 126.752 30.0742C126.4 30.276 126.111 30.556 125.883 30.9141C125.661 31.2656 125.495 31.6758 125.385 32.1445C125.281 32.6068 125.229 33.1016 125.229 33.6289Z" fill="white"/>
<circle cx="22.5" cy="22.5" r="22.5" fill="#1E90FF"/>
<g filter="url(#filter0_d_11_6)">
<line x1="14.25" y1="22" x2="14.25" y2="11" stroke="white" stroke-width="3.5"/>
</g>
<g filter="url(#filter1_d_11_6)">
<line x1="21.25" y1="27" x2="21.25" y2="7" stroke="white" stroke-width="3.5"/>
</g>
<g filter="url(#filter2_d_11_6)">
<line x1="28.25" y1="27" x2="28.25" y2="4" stroke="white" stroke-width="3.5"/>
</g>
<line x1="1.85215" y1="31.6679" x2="13.5521" y2="20.8679" stroke="white" stroke-width="2.5"/>
<line x1="13.9426" y1="19.7143" x2="25.0901" y2="31.0837" stroke="white" stroke-width="2.5"/>
<path d="M40.5095 16.2224C40.5218 15.5322 39.9723 14.9626 39.2821 14.9502L28.0339 14.7482C27.3437 14.7358 26.7741 15.2853 26.7617 15.9756C26.7493 16.6658 27.2988 17.2354 27.989 17.2478L37.9874 17.4273L37.8079 27.4257C37.7955 28.116 38.345 28.6856 39.0352 28.698C39.7255 28.7104 40.2951 28.1609 40.3075 27.4706L40.5095 16.2224ZM24.4479 32.226L40.1275 17.0996L38.3918 15.3004L22.7121 30.4268L24.4479 32.226Z" fill="white"/>
<defs>
<filter id="filter0_d_11_6" x="8.5" y="11" width="11.5" height="19" filterUnits="userSpaceOnUse" color-interpolation-filters="sRGB">
<feFlood flood-opacity="0" result="BackgroundImageFix"/>
<feColorMatrix in="SourceAlpha" type="matrix" values="0 0 0 0 0 0 0 0 0 0 0 0 0 0 0 0 0 0 127 0" result="hardAlpha"/>
<feOffset dy="4"/>
<feGaussianBlur stdDeviation="2"/>
<feComposite in2="hardAlpha" operator="out"/>
<feColorMatrix type="matrix" values="0 0 0 0 0 0 0 0 0 0 0 0 0 0 0 0 0 0 0.7 0"/>
<feBlend mode="normal" in2="BackgroundImageFix" result="effect1_dropShadow_11_6"/>
<feBlend mode="normal" in="SourceGraphic" in2="effect1_dropShadow_11_6" result="shape"/>
</filter>
<filter id="filter1_d_11_6" x="15.5" y="5" width="11.5" height="28" filterUnits="userSpaceOnUse" color-interpolation-filters="sRGB">
<feFlood flood-opacity="0" result="BackgroundImageFix"/>
<feColorMatrix in="SourceAlpha" type="matrix" values="0 0 0 0 0 0 0 0 0 0 0 0 0 0 0 0 0 0 127 0" result="hardAlpha"/>
<feOffset dy="2"/>
<feGaussianBlur stdDeviation="2"/>
<feComposite in2="hardAlpha" operator="out"/>
<feColorMatrix type="matrix" values="0 0 0 0 0 0 0 0 0 0 0 0 0 0 0 0 0 0 0.7 0"/>
<feBlend mode="normal" in2="BackgroundImageFix" result="effect1_dropShadow_11_6"/>
<feBlend mode="normal" in="SourceGraphic" in2="effect1_dropShadow_11_6" result="shape"/>
</filter>
<filter id="filter2_d_11_6" x="22.5" y="2" width="11.5" height="31" filterUnits="userSpaceOnUse" color-interpolation-filters="sRGB">
<feFlood flood-opacity="0" result="BackgroundImageFix"/>
<feColorMatrix in="SourceAlpha" type="matrix" values="0 0 0 0 0 0 0 0 0 0 0 0 0 0 0 0 0 0 127 0" result="hardAlpha"/>
<feOffset dy="2"/>
<feGaussianBlur stdDeviation="2"/>
<feComposite in2="hardAlpha" operator="out"/>
<feColorMatrix type="matrix" values="0 0 0 0 0 0 0 0 0 0 0 0 0 0 0 0 0 0 0.7 0"/>
<feBlend mode="normal" in2="BackgroundImageFix" result="effect1_dropShadow_11_6"/>
<feBlend mode="normal" in="SourceGraphic" in2="effect1_dropShadow_11_6" result="shape"/>
</filter>
</defs>
</svg>
