<svg width="45" height="45" viewBox="0 0 45 45" fill="none" xmlns="http://www.w3.org/2000/svg">
<circle cx="22.5" cy="22.5" r="22.5" fill="#1E90FF"/>
<g filter="url(#filter0_d_0_1)">
<line x1="14.25" y1="22" x2="14.25" y2="11" stroke="white" stroke-width="3.5"/>
</g>
<g filter="url(#filter1_d_0_1)">
<line x1="21.25" y1="27" x2="21.25" y2="7" stroke="white" stroke-width="3.5"/>
</g>
<g filter="url(#filter2_d_0_1)">
<line x1="28.25" y1="27" x2="28.25" y2="4" stroke="white" stroke-width="3.5"/>
</g>
<line x1="1.85215" y1="31.6679" x2="13.5521" y2="20.8679" stroke="white" stroke-width="2.5"/>
<line x1="13.9426" y1="19.7143" x2="25.0901" y2="31.0837" stroke="white" stroke-width="2.5"/>
<path d="M40.5095 16.2224C40.5218 15.5322 39.9723 14.9626 39.2821 14.9502L28.0339 14.7482C27.3437 14.7358 26.7741 15.2853 26.7617 15.9756C26.7493 16.6658 27.2988 17.2354 27.989 17.2478L37.9874 17.4273L37.8079 27.4257C37.7955 28.116 38.345 28.6856 39.0352 28.698C39.7255 28.7104 40.2951 28.1609 40.3075 27.4706L40.5095 16.2224ZM24.4479 32.226L40.1275 17.0996L38.3918 15.3004L22.7121 30.4268L24.4479 32.226Z" fill="white"/>
<defs>
<filter id="filter0_d_0_1" x="8.5" y="11" width="11.5" height="19" filterUnits="userSpaceOnUse" color-interpolation-filters="sRGB">
<feFlood flood-opacity="0" result="BackgroundImageFix"/>
<feColorMatrix in="SourceAlpha" type="matrix" values="0 0 0 0 0 0 0 0 0 0 0 0 0 0 0 0 0 0 127 0" result="hardAlpha"/>
<feOffset dy="4"/>
<feGaussianBlur stdDeviation="2"/>
<feComposite in2="hardAlpha" operator="out"/>
<feColorMatrix type="matrix" values="0 0 0 0 0 0 0 0 0 0 0 0 0 0 0 0 0 0 0.7 0"/>
<feBlend mode="normal" in2="BackgroundImageFix" result="effect1_dropShadow_0_1"/>
<feBlend mode="normal" in="SourceGraphic" in2="effect1_dropShadow_0_1" result="shape"/>
</filter>
<filter id="filter1_d_0_1" x="15.5" y="5" width="11.5" height="28" filterUnits="userSpaceOnUse" color-interpolation-filters="sRGB">
<feFlood flood-opacity="0" result="BackgroundImageFix"/>
<feColorMatrix in="SourceAlpha" type="matrix" values="0 0 0 0 0 0 0 0 0 0 0 0 0 0 0 0 0 0 127 0" result="hardAlpha"/>
<feOffset dy="2"/>
<feGaussianBlur stdDeviation="2"/>
<feComposite in2="hardAlpha" operator="out"/>
<feColorMatrix type="matrix" values="0 0 0 0 0 0 0 0 0 0 0 0 0 0 0 0 0 0 0.7 0"/>
<feBlend mode="normal" in2="BackgroundImageFix" result="effect1_dropShadow_0_1"/>
<feBlend mode="normal" in="SourceGraphic" in2="effect1_dropShadow_0_1" result="shape"/>
</filter>
<filter id="filter2_d_0_1" x="22.5" y="2" width="11.5" height="31" filterUnits="userSpaceOnUse" color-interpolation-filters="sRGB">
<feFlood flood-opacity="0" result="BackgroundImageFix"/>
<feColorMatrix in="SourceAlpha" type="matrix" values="0 0 0 0 0 0 0 0 0 0 0 0 0 0 0 0 0 0 127 0" result="hardAlpha"/>
<feOffset dy="2"/>
<feGaussianBlur stdDeviation="2"/>
<feComposite in2="hardAlpha" operator="out"/>
<feColorMatrix type="matrix" values="0 0 0 0 0 0 0 0 0 0 0 0 0 0 0 0 0 0 0.7 0"/>
<feBlend mode="normal" in2="BackgroundImageFix" result="effect1_dropShadow_0_1"/>
<feBlend mode="normal" in="SourceGraphic" in2="effect1_dropShadow_0_1" result="shape"/>
</filter>
</defs>
</svg>
