<svg xmlns="http://www.w3.org/2000/svg" width="83" height="87" viewBox="0 0 83 87">
    <g fill="none">
        <path fill="#8E8E9A" d="M41.127 2.938c12.168 0 22.033 9.864 22.033 22.032s-9.865 22.033-22.033 22.033c-12.168 0-22.032-9.865-22.032-22.033 0-12.168 9.864-22.032 22.032-22.032zm0-2.938c-13.79 0-24.97 11.18-24.97 24.97s11.18 24.97 24.97 24.97 24.97-11.18 24.97-24.97S54.917 0 41.127 0zM2.848 76.38H0C.016 65.028 9.213 55.83 20.564 55.815v2.848c-9.781.008-17.708 7.934-17.716 17.715zM82.255 76.38h-2.849c-.007-9.782-7.934-17.708-17.715-17.716v-2.848c11.35.015 20.548 9.213 20.564 20.563z"/>
        <path fill="#5F38FA" d="M0 83.723H82.255V86.661H0z"/>
    </g>
</svg>
