<svg width="30" height="30" viewBox="0 0 30 30" fill="none" xmlns="http://www.w3.org/2000/svg">
<path d="M25.6113 25.0137C25.1099 25.5975 24.4883 26.066 23.7891 26.3873C23.0899 26.7085 22.3295 26.8749 21.56 26.875H21.415C16.605 26.7456 12.0277 24.777 8.62533 21.3746C5.22293 17.9723 3.25441 13.3949 3.125 8.58497C3.10291 7.7866 3.25985 6.99342 3.5843 6.26362C3.90875 5.53383 4.39249 4.88593 5 4.36747C5.56662 3.87323 6.23673 3.51217 6.96113 3.31079C7.68554 3.10941 8.44586 3.07282 9.18625 3.20372C9.38694 3.23963 9.5849 3.28933 9.77875 3.35247C10.1038 3.4617 10.3925 3.65846 10.6131 3.92111C10.8336 4.18376 10.9774 4.50213 11.0288 4.84122L11.8663 10.1587C11.918 10.4864 11.8827 10.8219 11.7641 11.1316C11.6454 11.4414 11.4474 11.7145 11.19 11.9237C11.085 12.0087 10.9763 12.0887 10.8625 12.165C10.7258 12.2489 10.6235 12.3789 10.5743 12.5315C10.525 12.6842 10.5319 12.8495 10.5938 12.9975C11.8376 15.8699 14.128 18.1613 17 19.4062C17.1499 19.468 17.3169 19.4739 17.4708 19.423C17.6247 19.3721 17.7553 19.2677 17.8388 19.1287C17.8975 19.0437 17.9638 18.96 18.0213 18.8787C18.2316 18.6159 18.5082 18.4139 18.8227 18.2937C19.1371 18.1735 19.478 18.1394 19.81 18.195L25.225 19.0962C25.5689 19.1494 25.8906 19.2989 26.153 19.5274C26.4154 19.756 26.6076 20.0542 26.7075 20.3875C26.7412 20.5125 26.7725 20.6462 26.8 20.8025C26.9275 21.5486 26.8869 22.3138 26.6813 23.0424C26.4756 23.7709 26.1101 24.4443 25.6113 25.0137Z" fill="#1E90FF"/>
</svg>
