<svg width="25" height="25" viewBox="0 0 25 25" fill="none" xmlns="http://www.w3.org/2000/svg">
<path d="M24.7421 23.3837L18.7269 17.3673C20.4711 15.2733 21.3408 12.5874 21.1552 9.8684C20.9695 7.14943 19.7427 4.60671 17.7301 2.76919C15.7174 0.931661 13.0738 -0.0591957 10.3492 0.00273784C7.62462 0.0646714 5.02879 1.17463 3.10171 3.10171C1.17463 5.02879 0.0646714 7.62462 0.00273784 10.3492C-0.0591957 13.0738 0.931661 15.7174 2.76919 17.7301C4.60671 19.7427 7.14943 20.9695 9.8684 21.1552C12.5874 21.3408 15.2733 20.4711 17.3673 18.7269L23.3837 24.7421C23.5659 24.9118 23.8069 25.0042 24.0559 24.9999C24.3049 24.9955 24.5424 24.8946 24.7185 24.7185C24.8946 24.5424 24.9955 24.3049 24.9999 24.0559C25.0042 23.8069 24.9118 23.5659 24.7421 23.3837ZM1.95793 10.6077C1.95793 8.89693 2.46523 7.22459 3.41567 5.80214C4.36612 4.37969 5.71703 3.27103 7.29757 2.61635C8.87811 1.96167 10.6173 1.79038 12.2952 2.12413C13.9731 2.45788 15.5143 3.28169 16.724 4.49138C17.9337 5.70108 18.7575 7.24232 19.0913 8.92021C19.425 10.5981 19.2537 12.3373 18.599 13.9178C17.9444 15.4984 16.8357 16.8493 15.4132 17.7997C13.9908 18.7502 12.3185 19.2575 10.6077 19.2575C8.31447 19.2548 6.11594 18.3426 4.49438 16.721C2.87282 15.0995 1.96064 12.9009 1.95793 10.6077Z" fill="white"/>
</svg>
