<svg width="30" height="30" viewBox="0 0 30 30" fill="none" xmlns="http://www.w3.org/2000/svg">
<g clip-path="url(#clip0_104_23)">
<path d="M9.98242 27.6778C9.98242 27.8576 10.0822 28.0224 10.241 28.1064C10.3996 28.1903 10.5924 28.1796 10.7407 28.078L14.0794 25.7983L9.98248 23.8456V27.6778H9.98242Z" fill="white"/>
<path d="M29.8441 1.96619C29.7524 1.88164 29.634 1.8374 29.5144 1.8374C29.4423 1.8374 29.3703 1.8534 29.3023 1.88686L0.479043 16.0254C0.184439 16.1702 -0.00198405 16.4711 1.59334e-05 16.8002C0.00201592 17.1288 0.19159 17.4276 0.488316 17.5692L8.08475 21.1888L23.2738 8.70463L9.96686 22.0855L19.4301 26.5946C19.5464 26.6503 19.6733 26.678 19.7989 26.678C19.906 26.678 20.0121 26.6585 20.1132 26.6188C20.3336 26.5316 20.5087 26.3571 20.5962 26.1366L29.9656 2.50037C30.0398 2.31437 29.9914 2.1017 29.8441 1.96619Z" fill="white"/>
</g>
<defs>
<clipPath id="clip0_104_23">
<rect width="30" height="30" fill="white"/>
</clipPath>
</defs>
</svg>
