<svg width="40" height="40" viewBox="0 0 40 40" fill="none" xmlns="http://www.w3.org/2000/svg">
<g clip-path="url(#clip0_110_10)">
<path fill-rule="evenodd" clip-rule="evenodd" d="M1.08724 0H38.9128C39.2009 0.00103549 39.4769 0.1395 39.6806 0.385153C39.8843 0.630806 39.9991 0.963685 40 1.31109V31.5368C39.9991 31.8842 39.8843 32.2171 39.6806 32.4627C39.4769 32.7084 39.2009 32.8469 38.9128 32.8479H1.08724C0.944038 32.8474 0.802319 32.8129 0.670177 32.7463C0.538036 32.6797 0.41806 32.5824 0.3171 32.46C0.216141 32.3375 0.136174 32.1922 0.0817668 32.0325C0.0273595 31.8727 -0.000423245 31.7016 4.87343e-06 31.5289V1.30324C0.00257351 0.957198 0.118152 0.626326 0.321679 0.382365C0.525206 0.138404 0.800275 0.00101913 1.08724 0ZM4.39128 25.0873C4.27638 25.096 4.16122 25.0761 4.05292 25.029C3.94462 24.9819 3.84546 24.9086 3.76157 24.8135C3.67767 24.7184 3.61081 24.6037 3.5651 24.4762C3.5194 24.3488 3.49582 24.2115 3.49582 24.0726C3.49582 23.9338 3.5194 23.7964 3.5651 23.669C3.61081 23.5416 3.67767 23.4268 3.76157 23.3317C3.84546 23.2367 3.94462 23.1633 4.05292 23.1162C4.16122 23.0691 4.27638 23.0493 4.39128 23.0579H17.2331C17.348 23.0493 17.4631 23.0691 17.5714 23.1162C17.6797 23.1633 17.7789 23.2367 17.8628 23.3317C17.9467 23.4268 18.0136 23.5416 18.0593 23.669C18.105 23.7964 18.1285 23.9338 18.1285 24.0726C18.1285 24.2115 18.105 24.3488 18.0593 24.4762C18.0136 24.6037 17.9467 24.7184 17.8628 24.8135C17.7789 24.9086 17.6797 24.9819 17.5714 25.029C17.4631 25.0761 17.348 25.096 17.2331 25.0873H4.39128ZM4.44011 19.8744C4.22598 19.8583 4.02499 19.7444 3.87808 19.5559C3.73116 19.3674 3.64937 19.1184 3.64937 18.8597C3.64937 18.601 3.73116 18.352 3.87808 18.1634C4.02499 17.9749 4.22598 17.861 4.44011 17.8449H13.8021C14.0162 17.861 14.2172 17.9749 14.3641 18.1634C14.511 18.352 14.5928 18.601 14.5928 18.8597C14.5928 19.1184 14.511 19.3674 14.3641 19.5559C14.2172 19.7444 14.0162 19.8583 13.8021 19.8744H4.44011ZM4.39128 14.6811C4.27638 14.6897 4.16122 14.6698 4.05292 14.6227C3.94462 14.5756 3.84546 14.5023 3.76157 14.4072C3.67767 14.3122 3.61081 14.1974 3.5651 14.07C3.5194 13.9425 3.49582 13.8052 3.49582 13.6663C3.49582 13.5275 3.5194 13.3901 3.5651 13.2627C3.61081 13.1353 3.67767 13.0205 3.76157 12.9254C3.84546 12.8304 3.94462 12.757 4.05292 12.7099C4.16122 12.6628 4.27638 12.643 4.39128 12.6516H11.0189C11.233 12.6677 11.434 12.7816 11.5809 12.9701C11.7278 13.1587 11.8096 13.4076 11.8096 13.6663C11.8096 13.925 11.7278 14.174 11.5809 14.3626C11.434 14.5511 11.233 14.665 11.0189 14.6811H4.39128ZM4.39128 9.47596C4.27638 9.48458 4.16122 9.46473 4.05292 9.41764C3.94462 9.37054 3.84546 9.2972 3.76157 9.20213C3.67767 9.10706 3.61081 8.99227 3.5651 8.86485C3.5194 8.73743 3.49582 8.60007 3.49582 8.46124C3.49582 8.32241 3.5194 8.18505 3.5651 8.05762C3.61081 7.9302 3.67767 7.81542 3.76157 7.72034C3.84546 7.62527 3.94462 7.55193 4.05292 7.50484C4.16122 7.45774 4.27638 7.43789 4.39128 7.44652H8.23568C8.44981 7.46258 8.6508 7.57648 8.79771 7.76502C8.94463 7.95355 9.02642 8.20253 9.02642 8.46124C9.02642 8.71995 8.94463 8.96893 8.79771 9.15746C8.6508 9.34599 8.44981 9.45989 8.23568 9.47596H4.39128ZM35.9668 19.7566V22.2846L31.6602 25.2287V22.2846L34.4336 21.0128L31.6602 19.7566V16.8126L35.9668 19.7566ZM28.5059 26.0373H26.6927L28.9714 15.3955H30.804L28.5254 26.0373H28.5059ZM25.4427 19.7566L22.666 21.0128L25.4427 22.2846V25.2287L21.1589 22.2846V19.7566L25.4688 16.8126V19.7566H25.4427ZM27.2884 4.57311V6.01374C27.2884 6.20426 27.2257 6.38697 27.1139 6.52169C27.0022 6.65641 26.8507 6.73209 26.6927 6.73209H25.7162C25.5942 7.21604 25.419 7.67812 25.1953 8.10599L25.8464 8.89107C25.9573 9.02566 26.0195 9.2077 26.0195 9.39745C26.0195 9.5872 25.9573 9.76924 25.8464 9.90383L24.9642 10.9676C24.8526 11.1014 24.7016 11.1764 24.5443 11.1764C24.3869 11.1764 24.236 11.1014 24.1244 10.9676L23.4147 10.1119C23.0454 10.3508 22.6513 10.529 22.2428 10.6418V11.7488C22.242 11.939 22.179 12.1211 22.0674 12.2556C21.9559 12.3901 21.8049 12.4661 21.6471 12.4671H20.3874C20.2296 12.4661 20.0786 12.3901 19.9671 12.2556C19.8556 12.1211 19.7925 11.939 19.7917 11.7488V10.5397C19.3902 10.3949 19.0069 10.185 18.6523 9.9156L18.0013 10.7007C17.9462 10.768 17.8806 10.8214 17.8082 10.8579C17.7358 10.8943 17.6582 10.9131 17.5798 10.9131C17.5013 10.9131 17.4237 10.8943 17.3513 10.8579C17.279 10.8214 17.2133 10.768 17.1582 10.7007L16.276 9.6369C16.1688 9.50236 16.1089 9.32301 16.1089 9.13641C16.1089 8.94981 16.1688 8.77045 16.276 8.63592L16.9857 7.7841C16.7876 7.33743 16.6398 6.86086 16.5462 6.36703H15.625C15.467 6.36703 15.3155 6.29134 15.2038 6.15663C15.0921 6.02191 15.0293 5.83919 15.0293 5.64868V4.58881H1.00586V27.8077C1.00586 28.12 1.10875 28.4195 1.29189 28.6404C1.47503 28.8612 1.72343 28.9853 1.98243 28.9853H38.0371C38.2961 28.9853 38.5445 28.8612 38.7276 28.6404C38.9108 28.4195 39.0137 28.12 39.0137 27.8077V4.57311H27.2884ZM23.571 4.57311H18.7565C18.733 4.7391 18.721 4.90717 18.7207 5.07556C18.7658 5.81923 19.0426 6.51479 19.4954 7.02246C19.9483 7.53014 20.5438 7.81233 21.1621 7.81233C21.7805 7.81233 22.3759 7.53014 22.8288 7.02246C23.2817 6.51479 23.5585 5.81923 23.6035 5.07556C23.6043 4.90728 23.5934 4.73921 23.571 4.57311ZM37.1745 1.93131C37.3032 1.93131 37.4291 1.97735 37.5362 2.06362C37.6432 2.14988 37.7267 2.27249 37.776 2.41595C37.8252 2.55941 37.8381 2.71726 37.813 2.86955C37.7879 3.02184 37.7259 3.16173 37.6348 3.27153C37.5438 3.38132 37.4278 3.45609 37.3015 3.48639C37.1752 3.51668 37.0443 3.50113 36.9253 3.44171C36.8064 3.38229 36.7047 3.28166 36.6332 3.15256C36.5616 3.02345 36.5234 2.87166 36.5234 2.71639C36.5234 2.50817 36.592 2.30848 36.7141 2.16125C36.8362 2.01402 37.0018 1.93131 37.1745 1.93131ZM32.7995 1.93131C32.9282 1.93131 33.0541 1.97735 33.1612 2.06362C33.2682 2.14988 33.3517 2.27249 33.401 2.41595C33.4502 2.55941 33.4631 2.71726 33.438 2.86955C33.4129 3.02184 33.3509 3.16173 33.2598 3.27153C33.1688 3.38132 33.0528 3.45609 32.9265 3.48639C32.8002 3.51668 32.6693 3.50113 32.5503 3.44171C32.4314 3.38229 32.3297 3.28166 32.2582 3.15256C32.1866 3.02345 32.1484 2.87166 32.1484 2.71639C32.1484 2.50817 32.217 2.30848 32.3391 2.16125C32.4612 2.01402 32.6268 1.93131 32.7995 1.93131ZM34.987 1.93131C35.1158 1.93131 35.2416 1.97735 35.3487 2.06362C35.4557 2.14988 35.5392 2.27249 35.5885 2.41595C35.6377 2.55941 35.6506 2.71726 35.6255 2.86955C35.6004 3.02184 35.5384 3.16173 35.4473 3.27153C35.3563 3.38132 35.2403 3.45609 35.114 3.48639C34.9877 3.51668 34.8568 3.50113 34.7378 3.44171C34.6189 3.38229 34.5172 3.28166 34.4457 3.15256C34.3741 3.02345 34.3359 2.87166 34.3359 2.71639C34.3359 2.50817 34.4045 2.30848 34.5266 2.16125C34.6487 2.01402 34.8143 1.93131 34.987 1.93131ZM15.0684 34.6497H24.9316C24.9577 36.7066 25.6608 38.5515 27.5651 40H12.4349C13.9681 38.6614 15.0749 37.0402 15.0684 34.6497Z" fill="black"/>
</g>
<defs>
<clipPath id="clip0_110_10">
<rect width="40" height="40" fill="white"/>
</clipPath>
</defs>
</svg>
