<svg width="50" height="50" viewBox="0 0 50 50" fill="none" xmlns="http://www.w3.org/2000/svg">
<g clip-path="url(#clip0_104_5)">
<path d="M25 50C38.8071 50 50 38.8071 50 25C50 11.1929 38.8071 0 25 0C11.1929 0 0 11.1929 0 25C0 38.8071 11.1929 50 25 50Z" fill="#1E90FF"/>
<path d="M45 15.9034C43.7122 16.4813 42.3284 16.8704 40.8759 17.0457C42.3575 16.1481 43.4965 14.7258 44.0331 13.0306C42.6463 13.8634 41.1091 14.4662 39.4729 14.7935C38.1634 13.3815 36.2966 12.5 34.2316 12.5C30.2665 12.5 27.0509 15.7501 27.0509 19.7579C27.0509 20.3269 27.115 20.881 27.2375 21.4118C21.27 21.1095 15.9778 18.2205 12.4369 13.828C11.8185 14.9011 11.4642 16.1466 11.4642 17.4776C11.4642 19.9952 12.7315 22.218 14.6594 23.5195C13.4825 23.4796 12.3742 23.1539 11.4058 22.6115V22.7014C11.4058 26.2184 13.8806 29.1515 17.1662 29.8178C16.564 29.9859 15.9281 30.0728 15.2747 30.0728C14.811 30.0728 14.3619 30.0271 13.9229 29.9431C14.8372 32.8263 17.4885 34.9251 20.6312 34.9841C18.1725 36.9298 15.0765 38.0897 11.7135 38.0897C11.1331 38.0897 10.5615 38.0559 10 37.9895C13.1778 40.0472 16.9519 41.25 21.0075 41.25C34.2156 41.25 41.4372 30.1908 41.4372 20.5995C41.4372 20.2856 41.43 19.9731 41.4169 19.6621C42.8197 18.6376 44.0375 17.3598 45 15.9034Z" fill="white"/>
</g>
<defs>
<clipPath id="clip0_104_5">
<rect width="50" height="50" fill="white"/>
</clipPath>
</defs>
</svg>
